<svg width="1920" height="25" viewBox="0 0 1920 25" fill="none" xmlns="http://www.w3.org/2000/svg">
<g filter="url(#filter0_b_390_3859)">
<path fill-rule="evenodd" clip-rule="evenodd" d="M0 0H30V5H5V10H15V15L5 15H0V10V5V0ZM0 25V20H30V25H0ZM20 10V15H24H26H30V10H26L24 10H20Z" fill="white" fill-opacity="0.4"/>
<path fill-rule="evenodd" clip-rule="evenodd" d="M30 0H60V5H35V10H45V15L35 15H30V10V5V0ZM30 25V20H60V25H30ZM50 10V15H54H56H60V10H56L54 10H50Z" fill="white" fill-opacity="0.4"/>
<path fill-rule="evenodd" clip-rule="evenodd" d="M60 0H90V5H65V10H75V15L65 15H60V10V5V0ZM60 25V20H90V25H60ZM80 10V15H84H86H90V10H86L84 10H80Z" fill="white" fill-opacity="0.4"/>
<path fill-rule="evenodd" clip-rule="evenodd" d="M90 0H120V5H95V10H105V15L95 15H90V10V5V0ZM90 25V20H120V25H90ZM110 10V15H114H116H120V10H116L114 10H110Z" fill="white" fill-opacity="0.4"/>
<path fill-rule="evenodd" clip-rule="evenodd" d="M120 0H150V5H125V10H135V15L125 15H120V10V5V0ZM120 25V20H150V25H120ZM140 10V15H144H146H150V10H146L144 10H140Z" fill="white" fill-opacity="0.4"/>
<path fill-rule="evenodd" clip-rule="evenodd" d="M150 0H180V5H155V10H165V15L155 15H150V10V5V0ZM150 25V20H180V25H150ZM170 10V15H174H176H180V10H176L174 10H170Z" fill="white" fill-opacity="0.4"/>
<path fill-rule="evenodd" clip-rule="evenodd" d="M180 0H210V5H185V10H195V15L185 15H180V10V5V0ZM180 25V20H210V25H180ZM200 10V15H204H206H210V10H206L204 10H200Z" fill="white" fill-opacity="0.4"/>
<path fill-rule="evenodd" clip-rule="evenodd" d="M210 0H240V5H215V10H225V15L215 15H210V10V5V0ZM210 25V20H240V25H210ZM230 10V15H234H236H240V10H236L234 10H230Z" fill="white" fill-opacity="0.4"/>
<path fill-rule="evenodd" clip-rule="evenodd" d="M240 0H270V5H245V10H255V15L245 15H240V10V5V0ZM240 25V20H270V25H240ZM260 10V15H264H266H270V10H266L264 10H260Z" fill="white" fill-opacity="0.4"/>
<path fill-rule="evenodd" clip-rule="evenodd" d="M270 0H300V5H275V10H285V15L275 15H270V10V5V0ZM270 25V20H300V25H270ZM290 10V15H294H296H300V10H296L294 10H290Z" fill="white" fill-opacity="0.4"/>
<path fill-rule="evenodd" clip-rule="evenodd" d="M300 0H330V5H305V10H315V15L305 15H300V10V5V0ZM300 25V20H330V25H300ZM320 10V15H324H326H330V10H326L324 10H320Z" fill="white" fill-opacity="0.4"/>
<path fill-rule="evenodd" clip-rule="evenodd" d="M330 0H360V5H335V10H345V15L335 15H330V10V5V0ZM330 25V20H360V25H330ZM350 10V15H354H356H360V10H356L354 10H350Z" fill="white" fill-opacity="0.4"/>
<path fill-rule="evenodd" clip-rule="evenodd" d="M360 0H390V5H365V10H375V15L365 15H360V10V5V0ZM360 25V20H390V25H360ZM380 10V15H384H386H390V10H386L384 10H380Z" fill="white" fill-opacity="0.4"/>
<path fill-rule="evenodd" clip-rule="evenodd" d="M390 0H420V5H395V10H405V15L395 15H390V10V5V0ZM390 25V20H420V25H390ZM410 10V15H414H416H420V10H416L414 10H410Z" fill="white" fill-opacity="0.4"/>
<path fill-rule="evenodd" clip-rule="evenodd" d="M420 0H450V5H425V10H435V15L425 15H420V10V5V0ZM420 25V20H450V25H420ZM440 10V15H444H446H450V10H446L444 10H440Z" fill="white" fill-opacity="0.4"/>
<path fill-rule="evenodd" clip-rule="evenodd" d="M450 0H480V5H455V10H465V15L455 15H450V10V5V0ZM450 25V20H480V25H450ZM470 10V15H474H476H480V10H476L474 10H470Z" fill="white" fill-opacity="0.4"/>
<path fill-rule="evenodd" clip-rule="evenodd" d="M480 0H510V5H485V10H495V15L485 15H480V10V5V0ZM480 25V20H510V25H480ZM500 10V15H504H506H510V10H506L504 10H500Z" fill="white" fill-opacity="0.4"/>
<path fill-rule="evenodd" clip-rule="evenodd" d="M510 0H540V5H515V10H525V15L515 15H510V10V5V0ZM510 25V20H540V25H510ZM530 10V15H534H536H540V10H536L534 10H530Z" fill="white" fill-opacity="0.4"/>
<path fill-rule="evenodd" clip-rule="evenodd" d="M540 0H570V5H545V10H555V15L545 15H540V10V5V0ZM540 25V20H570V25H540ZM560 10V15H564H566H570V10H566L564 10H560Z" fill="white" fill-opacity="0.4"/>
<path fill-rule="evenodd" clip-rule="evenodd" d="M570 0H600V5H575V10H585V15L575 15H570V10V5V0ZM570 25V20H600V25H570ZM590 10V15H594H596H600V10H596L594 10H590Z" fill="white" fill-opacity="0.4"/>
<path fill-rule="evenodd" clip-rule="evenodd" d="M600 0H630V5H605V10H615V15L605 15H600V10V5V0ZM600 25V20H630V25H600ZM620 10V15H624H626H630V10H626L624 10H620Z" fill="white" fill-opacity="0.4"/>
<path fill-rule="evenodd" clip-rule="evenodd" d="M630 0H660V5H635V10H645V15L635 15H630V10V5V0ZM630 25V20H660V25H630ZM650 10V15H654H656H660V10H656L654 10H650Z" fill="white" fill-opacity="0.4"/>
<path fill-rule="evenodd" clip-rule="evenodd" d="M660 0H690V5H665V10H675V15L665 15H660V10V5V0ZM660 25V20H690V25H660ZM680 10V15H684H686H690V10H686L684 10H680Z" fill="white" fill-opacity="0.4"/>
<path fill-rule="evenodd" clip-rule="evenodd" d="M690 0H720V5H695V10H705V15L695 15H690V10V5V0ZM690 25V20H720V25H690ZM710 10V15H714H716H720V10H716L714 10H710Z" fill="white" fill-opacity="0.4"/>
<path fill-rule="evenodd" clip-rule="evenodd" d="M720 0H750V5H725V10H735V15L725 15H720V10V5V0ZM720 25V20H750V25H720ZM740 10V15H744H746H750V10H746L744 10H740Z" fill="white" fill-opacity="0.4"/>
<path fill-rule="evenodd" clip-rule="evenodd" d="M750 0H780V5H755V10H765V15L755 15H750V10V5V0ZM750 25V20H780V25H750ZM770 10V15H774H776H780V10H776L774 10H770Z" fill="white" fill-opacity="0.4"/>
<path fill-rule="evenodd" clip-rule="evenodd" d="M780 0H810V5H785V10H795V15L785 15H780V10V5V0ZM780 25V20H810V25H780ZM800 10V15H804H806H810V10H806L804 10H800Z" fill="white" fill-opacity="0.4"/>
<path fill-rule="evenodd" clip-rule="evenodd" d="M810 0H840V5H815V10H825V15L815 15H810V10V5V0ZM810 25V20H840V25H810ZM830 10V15H834H836H840V10H836L834 10H830Z" fill="white" fill-opacity="0.4"/>
<path fill-rule="evenodd" clip-rule="evenodd" d="M840 0H870V5H845V10H855V15L845 15H840V10V5V0ZM840 25V20H870V25H840ZM860 10V15H864H866H870V10H866L864 10H860Z" fill="white" fill-opacity="0.4"/>
<path fill-rule="evenodd" clip-rule="evenodd" d="M870 0H900V5H875V10H885V15L875 15H870V10V5V0ZM870 25V20H900V25H870ZM890 10V15H894H896H900V10H896L894 10H890Z" fill="white" fill-opacity="0.4"/>
<path fill-rule="evenodd" clip-rule="evenodd" d="M900 0H930V5H905V10H915V15L905 15H900V10V5V0ZM900 25V20H930V25H900ZM920 10V15H924H926H930V10H926L924 10H920Z" fill="white" fill-opacity="0.4"/>
<path fill-rule="evenodd" clip-rule="evenodd" d="M930 0H960V5H935V10H945V15L935 15H930V10V5V0ZM930 25V20H960V25H930ZM950 10V15H954H956H960V10H956L954 10H950Z" fill="white" fill-opacity="0.4"/>
<path fill-rule="evenodd" clip-rule="evenodd" d="M960 0H990V5H965V10H975V15L965 15H960V10V5V0ZM960 25V20H990V25H960ZM980 10V15H984H986H990V10H986L984 10H980Z" fill="white" fill-opacity="0.4"/>
<path fill-rule="evenodd" clip-rule="evenodd" d="M990 0H1020V5H995V10H1005V15L995 15H990V10V5V0ZM990 25V20H1020V25H990ZM1010 10V15H1014H1016H1020V10H1016L1014 10H1010Z" fill="white" fill-opacity="0.4"/>
<path fill-rule="evenodd" clip-rule="evenodd" d="M1020 0H1050V5H1025V10H1035V15L1025 15H1020V10V5V0ZM1020 25V20H1050V25H1020ZM1040 10V15H1044H1046H1050V10H1046L1044 10H1040Z" fill="white" fill-opacity="0.4"/>
<path fill-rule="evenodd" clip-rule="evenodd" d="M1050 0H1080V5H1055V10H1065V15L1055 15H1050V10V5V0ZM1050 25V20H1080V25H1050ZM1070 10V15H1074H1076H1080V10H1076L1074 10H1070Z" fill="white" fill-opacity="0.4"/>
<path fill-rule="evenodd" clip-rule="evenodd" d="M1080 0H1110V5H1085V10H1095V15L1085 15H1080V10V5V0ZM1080 25V20H1110V25H1080ZM1100 10V15H1104H1106H1110V10H1106L1104 10H1100Z" fill="white" fill-opacity="0.4"/>
<path fill-rule="evenodd" clip-rule="evenodd" d="M1110 0H1140V5H1115V10H1125V15L1115 15H1110V10V5V0ZM1110 25V20H1140V25H1110ZM1130 10V15H1134H1136H1140V10H1136L1134 10H1130Z" fill="white" fill-opacity="0.4"/>
<path fill-rule="evenodd" clip-rule="evenodd" d="M1140 0H1170V5H1145V10H1155V15L1145 15H1140V10V5V0ZM1140 25V20H1170V25H1140ZM1160 10V15H1164H1166H1170V10H1166L1164 10H1160Z" fill="white" fill-opacity="0.4"/>
<path fill-rule="evenodd" clip-rule="evenodd" d="M1170 0H1200V5H1175V10H1185V15L1175 15H1170V10V5V0ZM1170 25V20H1200V25H1170ZM1190 10V15H1194H1196H1200V10H1196L1194 10H1190Z" fill="white" fill-opacity="0.4"/>
<path fill-rule="evenodd" clip-rule="evenodd" d="M1200 0H1230V5H1205V10H1215V15L1205 15H1200V10V5V0ZM1200 25V20H1230V25H1200ZM1220 10V15H1224H1226H1230V10H1226L1224 10H1220Z" fill="white" fill-opacity="0.4"/>
<path fill-rule="evenodd" clip-rule="evenodd" d="M1230 0H1260V5H1235V10H1245V15L1235 15H1230V10V5V0ZM1230 25V20H1260V25H1230ZM1250 10V15H1254H1256H1260V10H1256L1254 10H1250Z" fill="white" fill-opacity="0.4"/>
<path fill-rule="evenodd" clip-rule="evenodd" d="M1260 0H1290V5H1265V10H1275V15L1265 15H1260V10V5V0ZM1260 25V20H1290V25H1260ZM1280 10V15H1284H1286H1290V10H1286L1284 10H1280Z" fill="white" fill-opacity="0.4"/>
<path fill-rule="evenodd" clip-rule="evenodd" d="M1290 0H1320V5H1295V10H1305V15L1295 15H1290V10V5V0ZM1290 25V20H1320V25H1290ZM1310 10V15H1314H1316H1320V10H1316L1314 10H1310Z" fill="white" fill-opacity="0.4"/>
<path fill-rule="evenodd" clip-rule="evenodd" d="M1320 0H1350V5H1325V10H1335V15L1325 15H1320V10V5V0ZM1320 25V20H1350V25H1320ZM1340 10V15H1344H1346H1350V10H1346L1344 10H1340Z" fill="white" fill-opacity="0.4"/>
<path fill-rule="evenodd" clip-rule="evenodd" d="M1350 0H1380V5H1355V10H1365V15L1355 15H1350V10V5V0ZM1350 25V20H1380V25H1350ZM1370 10V15H1374H1376H1380V10H1376L1374 10H1370Z" fill="white" fill-opacity="0.4"/>
<path fill-rule="evenodd" clip-rule="evenodd" d="M1380 0H1410V5H1385V10H1395V15L1385 15H1380V10V5V0ZM1380 25V20H1410V25H1380ZM1400 10V15H1404H1406H1410V10H1406L1404 10H1400Z" fill="white" fill-opacity="0.4"/>
<path fill-rule="evenodd" clip-rule="evenodd" d="M1410 0H1440V5H1415V10H1425V15L1415 15H1410V10V5V0ZM1410 25V20H1440V25H1410ZM1430 10V15H1434H1436H1440V10H1436L1434 10H1430Z" fill="white" fill-opacity="0.4"/>
<path fill-rule="evenodd" clip-rule="evenodd" d="M1440 0H1470V5H1445V10H1455V15L1445 15H1440V10V5V0ZM1440 25V20H1470V25H1440ZM1460 10V15H1464H1466H1470V10H1466L1464 10H1460Z" fill="white" fill-opacity="0.4"/>
<path fill-rule="evenodd" clip-rule="evenodd" d="M1470 0H1500V5H1475V10H1485V15L1475 15H1470V10V5V0ZM1470 25V20H1500V25H1470ZM1490 10V15H1494H1496H1500V10H1496L1494 10H1490Z" fill="white" fill-opacity="0.4"/>
<path fill-rule="evenodd" clip-rule="evenodd" d="M1500 0H1530V5H1505V10H1515V15L1505 15H1500V10V5V0ZM1500 25V20H1530V25H1500ZM1520 10V15H1524H1526H1530V10H1526L1524 10H1520Z" fill="white" fill-opacity="0.4"/>
<path fill-rule="evenodd" clip-rule="evenodd" d="M1530 0H1560V5H1535V10H1545V15L1535 15H1530V10V5V0ZM1530 25V20H1560V25H1530ZM1550 10V15H1554H1556H1560V10H1556L1554 10H1550Z" fill="white" fill-opacity="0.4"/>
<path fill-rule="evenodd" clip-rule="evenodd" d="M1560 0H1590V5H1565V10H1575V15L1565 15H1560V10V5V0ZM1560 25V20H1590V25H1560ZM1580 10V15H1584H1586H1590V10H1586L1584 10H1580Z" fill="white" fill-opacity="0.4"/>
<path fill-rule="evenodd" clip-rule="evenodd" d="M1590 0H1620V5H1595V10H1605V15L1595 15H1590V10V5V0ZM1590 25V20H1620V25H1590ZM1610 10V15H1614H1616H1620V10H1616L1614 10H1610Z" fill="white" fill-opacity="0.4"/>
<path fill-rule="evenodd" clip-rule="evenodd" d="M1620 0H1650V5H1625V10H1635V15L1625 15H1620V10V5V0ZM1620 25V20H1650V25H1620ZM1640 10V15H1644H1646H1650V10H1646L1644 10H1640Z" fill="white" fill-opacity="0.4"/>
<path fill-rule="evenodd" clip-rule="evenodd" d="M1650 0H1680V5H1655V10H1665V15L1655 15H1650V10V5V0ZM1650 25V20H1680V25H1650ZM1670 10V15H1674H1676H1680V10H1676L1674 10H1670Z" fill="white" fill-opacity="0.4"/>
<path fill-rule="evenodd" clip-rule="evenodd" d="M1680 0H1710V5H1685V10H1695V15L1685 15H1680V10V5V0ZM1680 25V20H1710V25H1680ZM1700 10V15H1704H1706H1710V10H1706L1704 10H1700Z" fill="white" fill-opacity="0.4"/>
<path fill-rule="evenodd" clip-rule="evenodd" d="M1710 0H1740V5H1715V10H1725V15L1715 15H1710V10V5V0ZM1710 25V20H1740V25H1710ZM1730 10V15H1734H1736H1740V10H1736L1734 10H1730Z" fill="white" fill-opacity="0.4"/>
<path fill-rule="evenodd" clip-rule="evenodd" d="M1740 0H1770V5H1745V10H1755V15L1745 15H1740V10V5V0ZM1740 25V20H1770V25H1740ZM1760 10V15H1764H1766H1770V10H1766L1764 10H1760Z" fill="white" fill-opacity="0.4"/>
<path fill-rule="evenodd" clip-rule="evenodd" d="M1770 0H1800V5H1775V10H1785V15L1775 15H1770V10V5V0ZM1770 25V20H1800V25H1770ZM1790 10V15H1794H1796H1800V10H1796L1794 10H1790Z" fill="white" fill-opacity="0.4"/>
<path fill-rule="evenodd" clip-rule="evenodd" d="M1800 0H1830V5H1805V10H1815V15L1805 15H1800V10V5V0ZM1800 25V20H1830V25H1800ZM1820 10V15H1824H1826H1830V10H1826L1824 10H1820Z" fill="white" fill-opacity="0.4"/>
<path fill-rule="evenodd" clip-rule="evenodd" d="M1830 0H1860V5H1835V10H1845V15L1835 15H1830V10V5V0ZM1830 25V20H1860V25H1830ZM1850 10V15H1854H1856H1860V10H1856L1854 10H1850Z" fill="white" fill-opacity="0.4"/>
<path fill-rule="evenodd" clip-rule="evenodd" d="M1860 0H1890V5H1865V10H1875V15L1865 15H1860V10V5V0ZM1860 25V20H1890V25H1860ZM1880 10V15H1884H1886H1890V10H1886L1884 10H1880Z" fill="white" fill-opacity="0.4"/>
<path fill-rule="evenodd" clip-rule="evenodd" d="M1890 0H1920V5H1895V10H1905V15L1895 15H1890V10V5V0ZM1890 25V20H1920V25H1890ZM1910 10V15H1914H1916H1920V10H1916L1914 10H1910Z" fill="white" fill-opacity="0.4"/>
</g>
<defs>
<filter id="filter0_b_390_3859" x="-4" y="-4" width="1928" height="33" filterUnits="userSpaceOnUse" color-interpolation-filters="sRGB">
<feFlood flood-opacity="0" result="BackgroundImageFix"/>
<feGaussianBlur in="BackgroundImage" stdDeviation="2"/>
<feComposite in2="SourceAlpha" operator="in" result="effect1_backgroundBlur_390_3859"/>
<feBlend mode="normal" in="SourceGraphic" in2="effect1_backgroundBlur_390_3859" result="shape"/>
</filter>
</defs>
</svg>
