<svg width="20" height="20" viewBox="0 0 20 20" fill="none" xmlns="http://www.w3.org/2000/svg">
<path d="M15.0262 13.8475L18.5953 17.4158L17.4162 18.595L13.8478 15.0258C12.5201 16.0902 10.8687 16.6691 9.16699 16.6667C5.02699 16.6667 1.66699 13.3067 1.66699 9.16666C1.66699 5.02666 5.02699 1.66666 9.16699 1.66666C13.307 1.66666 16.667 5.02666 16.667 9.16666C16.6694 10.8683 16.0905 12.5198 15.0262 13.8475ZM13.3545 13.2292C14.4121 12.1416 15.0027 10.6837 15.0003 9.16666C15.0003 5.94332 12.3895 3.33332 9.16699 3.33332C5.94366 3.33332 3.33366 5.94332 3.33366 9.16666C3.33366 12.3892 5.94366 15 9.16699 15C10.684 15.0024 12.1419 14.4118 13.2295 13.3542L13.3545 13.2292ZM10.1487 5.97999C9.90293 6.09099 9.68781 6.25995 9.52174 6.47237C9.35567 6.68479 9.24362 6.93433 9.19519 7.19958C9.14677 7.46483 9.16343 7.73787 9.24374 7.99527C9.32404 8.25266 9.4656 8.48673 9.65626 8.67739C9.84691 8.86805 10.081 9.00961 10.3384 9.08991C10.5958 9.17022 10.8688 9.18688 11.1341 9.13845C11.3993 9.09003 11.6489 8.97798 11.8613 8.81191C12.0737 8.64584 12.2427 8.43072 12.3537 8.18499C12.5727 8.89634 12.5473 9.66053 12.2816 10.3558C12.0158 11.051 11.5251 11.6374 10.8875 12.0213C10.2498 12.4053 9.50206 12.5648 8.76326 12.4745C8.02446 12.3841 7.33716 12.0491 6.81086 11.5228C6.28456 10.9965 5.94954 10.3092 5.8592 9.57039C5.76885 8.83159 5.92836 8.08381 6.31233 7.44619C6.69629 6.80858 7.28261 6.31781 7.97787 6.05209C8.67312 5.78637 9.43731 5.76099 10.1487 5.97999Z" fill="#6571A0"/>
</svg>
