<svg width="24" height="24" viewBox="0 0 24 24" fill="none" xmlns="http://www.w3.org/2000/svg">
<mask id="mask0_344_10938" style="mask-type:alpha" maskUnits="userSpaceOnUse" x="0" y="0" width="24" height="24">
<path d="M12 24C18.6274 24 24 18.6274 24 12C24 5.37258 18.6274 0 12 0C5.37258 0 0 5.37258 0 12C0 18.6274 5.37258 24 12 24Z" fill="#F0F0F0"/>
</mask>
<g mask="url(#mask0_344_10938)">
<path fill-rule="evenodd" clip-rule="evenodd" d="M10 0H22V24H10V0Z" fill="#4C67E8"/>
<path fill-rule="evenodd" clip-rule="evenodd" d="M22 0H32V24H22V0Z" fill="#C51918"/>
<path fill-rule="evenodd" clip-rule="evenodd" d="M0 0H12V24H0V0Z" fill="#C51918"/>
<path fill-rule="evenodd" clip-rule="evenodd" d="M6.01393 6.88422C5.00058 6.88422 5.1336 5.89688 5.1336 5.89688L5.61406 4.85928V5.27725V5.89688C5.61406 6.03034 5.79616 5.76342 5.79616 5.44211C5.79616 5.1208 6.01393 4.63966 6.01393 4.63966C6.01393 4.63966 6.02267 4.47878 6.0287 4.31992C6.06355 4.40165 6.13342 4.47242 6.2395 4.57986C6.25799 4.59859 6.27759 4.61844 6.2983 4.63966C6.42349 4.76795 6.4066 5.10781 6.39199 5.40185C6.37876 5.66815 6.36739 5.89688 6.46512 5.89688C6.67075 5.89688 6.65547 4.97811 6.65547 4.97811L7.0006 5.89688C7.0006 5.89688 7.02728 6.88422 6.01393 6.88422ZM6.01393 4.06454C6.03972 3.91379 6.03646 4.11517 6.0287 4.31992C5.99959 4.25167 5.9949 4.17579 6.01393 4.06454ZM7.53857 8.6838C7.53857 9.48649 6.867 10.1372 6.03857 10.1372C5.21015 10.1372 4.53857 9.48649 4.53857 8.6838C4.53857 7.8811 5.21015 7.23039 6.03857 7.23039C6.867 7.23039 7.53857 7.8811 7.53857 8.6838ZM3.76923 11.4043H2V19.9756H3.76923V11.4043ZM9.99994 11.4043H8.23071V19.9756H9.99994V11.4043ZM4.23071 11.4788L5.95544 12.5467L7.89932 11.4788H4.23071ZM5.95544 20L4.23071 18.9322H7.89932L5.95544 20ZM4.23071 12.8949H7.8461V13.5657H4.23071V12.8949ZM7.8461 17.8887H4.23071V18.5595H7.8461V17.8887ZM6.07687 17.516C7.09647 17.516 7.92302 16.7151 7.92302 15.7272C7.92302 14.7393 7.09647 13.9384 6.07687 13.9384C5.05726 13.9384 4.23071 14.7393 4.23071 15.7272C4.23071 16.7151 5.05726 17.516 6.07687 17.516ZM4.00318 9.2162C4.00318 9.2162 4.06533 11.0835 5.90584 11.0835C7.74635 11.0835 8.0434 9.2162 8.0434 9.2162C8.0434 9.2162 7.331 10.3601 6.02329 10.3601C4.71557 10.3601 4.00318 9.2162 4.00318 9.2162Z" fill="#F8D000"/>
</g>
</svg>
