<svg width="80" height="80" viewBox="0 0 80 80" fill="none" xmlns="http://www.w3.org/2000/svg">
<path fill-rule="evenodd" clip-rule="evenodd" d="M23.0466 68.1001C23.0466 68.5646 22.582 69.0292 23.0466 69.4938C23.5112 69.4938 23.0466 68.1001 23.0466 68.1001C23.0466 67.6356 23.0466 67.6356 23.0466 68.1001ZM32.8029 79.7134C31.4091 79.7134 30.48 79.2489 29.0863 78.7844C26.2989 77.8553 23.9758 76.9262 21.6529 75.9972H38.3778C37.9132 79.2489 36.984 80.6424 32.8029 79.7134ZM21.1885 75.9972C20.7239 75.9972 20.2593 75.5326 20.2593 75.5326C19.3301 75.0681 18.4011 74.139 17.4719 73.6745C13.7553 70.8873 14.2197 69.0292 17.0072 66.242L23.5114 59.7386C26.2988 57.4159 28.6217 54.6287 33.7321 56.4868C33.7321 56.4868 34.1965 56.4868 34.1965 56.9514C39.3069 58.8095 38.8423 62.9903 38.8423 66.242V75.5326V75.9972H31.4092C32.8029 74.6036 31.8738 73.6745 29.0863 72.7454C27.6926 72.2809 27.2278 70.8873 27.6924 70.8873C28.1569 70.8873 28.6216 70.8873 29.5508 70.4227C30.0154 71.3518 30.4799 70.4229 30.9444 69.9583C30.9444 69.4938 31.4092 69.4938 31.4092 69.4938L31.8737 69.0292H32.3381H32.8029L33.2673 69.9583C33.2673 69.9583 33.2673 69.9583 33.2673 69.4938L32.8029 69.0292C33.2674 69.0292 33.7321 69.0292 33.7321 69.0292L33.2673 68.1001C32.8027 68.5646 32.8027 68.5646 32.3381 68.5646L31.8737 67.6357C31.8737 67.6357 31.8737 67.6356 31.8737 68.1001L32.3381 68.5646C32.3381 68.5646 32.3381 68.5647 32.3381 69.0292C32.3381 69.0292 31.8737 69.0292 31.8737 69.4938C31.8737 69.0292 30.9444 69.4938 30.9444 69.4938C30.0153 69.0292 30.0152 69.0292 30.0152 69.4938C29.0861 69.9583 28.6216 69.9582 28.6216 68.5646C28.6216 67.6356 28.6215 66.7065 27.6924 66.242C27.6924 66.242 26.2989 65.7775 26.7634 65.313C28.6217 63.4549 25.3696 62.9902 24.905 63.4548C23.9759 63.9193 23.976 64.8485 24.4406 65.313C25.3697 66.2421 24.4405 66.242 23.5114 66.7066C23.0468 67.1711 22.5821 68.5647 22.5821 69.4938C21.653 71.8164 23.9758 71.3519 23.9758 71.8164C23.9758 73.21 21.6531 74.6036 23.5114 76.4617L21.1885 75.9972ZM24.905 69.4938C25.3696 69.9583 25.8342 69.9582 25.8342 70.8873H25.3695C24.9049 70.4228 24.905 70.4227 24.905 70.4227C24.905 70.8873 24.4404 71.3518 23.9758 70.4227C23.9758 70.4227 23.9759 70.4227 23.5114 70.4227C23.0468 70.8873 23.0466 70.8873 23.0466 71.3519C23.0466 72.2809 26.2989 71.8164 26.7634 70.8873C26.7634 70.4228 26.7634 70.4229 26.7634 69.9583C27.6926 69.4938 28.6216 69.0292 29.5508 68.5646V68.1001L27.2279 69.0292H26.7634C26.7634 69.0292 26.7633 69.0292 26.2987 69.0292C25.8341 69.0292 25.3696 69.0292 24.905 69.4938ZM30.0152 61.5967C30.0152 62.0612 30.9444 62.9904 32.3381 62.9904C33.2673 62.9904 34.661 61.5968 34.661 60.6677C34.661 59.2741 33.2673 58.3451 32.3381 58.3451V58.8095C33.2673 60.2031 32.3381 61.5967 30.0152 61.5967ZM30.9444 62.0612C31.409 62.5258 31.409 62.0612 32.3381 62.0612C32.8027 62.0612 33.7321 61.5968 33.7321 60.6677C33.7321 59.2741 33.2673 59.7386 33.2673 59.7386C33.2673 60.6677 32.3382 62.0612 30.9444 62.0612C30.9444 61.5967 30.9444 61.5967 30.9444 62.0612ZM32.8029 0.278721C31.4091 0.278721 30.48 0.743167 29.0863 1.2077C25.8343 2.13676 22.5823 3.53044 19.7948 4.92403C18.8657 5.38856 17.9363 6.31759 17.0072 6.78212C13.2906 9.56931 13.7553 11.4275 16.5427 14.2146L23.0466 20.718C25.8341 23.0407 28.157 25.8278 33.2673 23.9697C33.2673 23.9697 33.7321 23.9698 33.7321 23.5053C38.8424 21.6471 38.3778 17.4664 38.3778 14.2146V4.92403C38.3778 0.743252 37.4486 -0.65034 32.8029 0.278721ZM29.5508 17.4663V17.9308C29.0862 17.9308 28.6217 17.9308 28.1571 17.9308C27.6925 17.9308 27.228 17.4663 28.1571 17.4663H29.5508ZM29.5508 11.892V12.3564C29.0862 12.3564 28.6217 12.3564 28.1571 12.3564C27.6925 12.3564 27.228 11.892 28.1571 11.892H29.5508ZM28.1571 6.78212C27.6925 6.31759 27.6925 5.85309 28.1571 4.92403C28.1571 4.4595 28.6216 4.45947 28.6216 4.45947L29.0863 3.99491C29.0863 3.53038 29.5508 3.53032 29.5508 3.06579C29.5508 3.06579 29.5508 3.06591 29.5508 2.60137V3.06579C29.5508 3.53032 29.5509 3.53038 29.0863 3.99491C28.6217 4.45944 28.157 5.38847 28.6216 5.853C29.0861 6.31753 29.5508 5.853 29.5508 5.853C29.5508 5.853 29.5508 5.85298 29.5508 5.38845C29.5508 5.38845 29.5509 5.38845 29.0863 5.38845C28.6217 5.38845 28.6216 4.45947 29.5508 4.45947C30.0154 4.45947 30.48 4.4595 30.48 4.92403C30.9446 5.38856 30.4798 6.31756 30.0152 6.31756C29.5507 7.24662 28.6217 7.24665 28.1571 6.78212ZM26.7634 7.24668C27.228 7.71121 27.6924 7.7111 28.6216 7.7111H30.48C30.9446 7.7111 31.4091 7.7111 31.8737 7.7111C32.8028 8.17563 32.8029 9.10469 32.8029 10.0338C32.3383 10.0338 31.8736 10.0338 30.9444 10.0338C30.9444 10.0338 30.9444 10.4983 30.9444 10.9629C30.9444 14.2146 30.9444 17.0018 30.9444 20.2535C30.4799 20.2535 30.0155 20.2535 29.0863 20.2535C28.6217 20.2535 28.1571 20.2535 28.1571 20.718C28.6217 20.718 30.48 20.718 31.4092 20.718V17.0017C31.8738 17.0017 32.3383 16.5373 32.8029 16.5373C32.8029 17.4664 32.8029 20.2534 32.8029 21.647C30.9446 21.647 29.5508 21.647 27.2279 21.647C27.2279 20.718 27.228 19.7889 28.1571 19.3244C28.6217 19.3244 29.0862 18.8599 29.5508 18.8599H30.48V18.3954C30.0154 18.3954 30.0155 18.3954 29.0863 18.3954C28.1572 18.3954 27.2279 17.9308 27.2279 17.4663C27.2279 16.5372 27.6926 16.0727 29.0863 16.0727H30.48V14.2146C30.0154 14.2146 30.0152 14.2145 30.0152 14.6791C30.0152 15.1436 29.5507 15.6082 28.6216 15.6082C28.157 15.6082 27.6925 15.6081 27.2279 15.1436C26.7633 14.6791 26.7633 14.2146 27.2279 13.7501C27.6925 13.2856 28.6216 13.2856 28.6216 13.7501V14.2146C28.157 14.2146 28.1572 14.6791 29.0863 14.6791C29.5509 14.6791 29.5508 14.2146 29.5508 13.7501C29.5508 13.2856 30.0154 12.821 30.48 12.821H30.9444V13.2855C30.4799 13.2855 30.4799 13.2855 29.5508 13.2855C28.6216 13.2855 27.6924 12.8209 27.6924 12.3564C27.6924 11.4273 28.157 10.9629 29.5508 10.9629H30.9444C30.9444 10.4983 30.9446 10.4983 30.48 10.4983C30.0154 10.4983 29.0861 10.4983 28.6216 10.4983C28.6216 10.0338 28.6217 10.0339 28.1571 9.56933C29.5508 9.56933 30.9444 9.56933 32.3381 9.56933C32.3381 9.56933 32.3382 9.10478 31.8737 9.10478H30.0152C29.5507 9.10478 29.0863 9.10478 29.0863 9.10478H28.6216C26.7633 8.64024 26.7634 8.17574 26.7634 7.24668ZM47.2046 0.278721C48.5983 0.278721 49.5274 0.743167 50.9211 1.2077C54.1732 2.13676 57.4252 3.53044 60.2126 4.92403C61.1418 5.38856 62.0711 6.31759 63.0003 6.78212C66.7169 9.56931 66.2522 11.4275 63.4647 14.2146L57.8898 19.7889C57.4252 19.7889 56.4962 19.7889 56.0316 19.7889C56.0316 19.7889 56.4961 19.3245 56.4961 18.8599C56.4961 18.3954 56.9608 17.4662 56.9608 17.0017C56.9608 16.5372 55.1025 16.5373 54.638 16.5373C54.638 16.5373 53.7086 16.5373 53.244 16.5373C53.244 16.5373 52.7794 15.1436 53.244 15.1436C53.7086 15.1436 54.638 15.1436 54.638 14.6791C54.1734 14.2145 51.8504 12.8209 52.7795 12.3564C53.7087 12.3564 52.7796 12.3565 53.7088 11.892C54.6379 11.4275 54.1734 10.9629 54.638 11.4274C55.5671 12.3565 56.0316 12.3564 57.4253 12.3564C58.819 11.8919 58.8189 12.821 60.2126 11.4274C60.2126 11.4274 60.6774 10.9628 60.6774 10.4983C61.142 9.10472 60.6772 8.64024 60.2126 9.10478V9.56933C60.2126 10.0339 60.2129 10.4983 59.2837 10.0338C58.8191 10.0338 57.8898 10.0339 56.4961 9.56933C56.0315 9.56933 56.0315 9.10475 55.5669 8.64022C55.1023 8.17569 54.6378 7.71121 55.1024 7.24668L55.5669 6.78212C55.5669 6.78212 55.5671 6.78215 56.0316 7.24668H56.4961C56.4961 7.24668 56.4961 7.24657 56.4961 7.7111C56.4961 8.17563 56.4963 8.17566 56.9608 8.17566C56.9608 8.17566 56.9607 8.17566 57.4253 8.17566C57.4253 8.17566 57.4252 8.17566 57.8898 8.17566C57.8898 8.17566 58.3545 8.17563 58.3545 7.7111C57.8899 7.7111 57.8898 7.7111 57.8898 7.7111C57.8898 7.24657 57.8899 6.78212 57.4253 6.78212C57.4253 6.78212 57.4254 6.78212 56.9608 6.78212L57.4253 6.31756C57.8899 5.3885 56.0317 4.45938 54.638 5.38845C54.1734 5.85298 53.7088 6.78215 54.638 7.24668C54.638 7.24668 55.1025 7.71121 53.7088 7.24668C52.7796 6.78215 50.9212 7.24665 50.4567 6.78212C49.5275 6.31759 50.9211 5.85298 50.9211 5.38845C50.9211 5.38845 50.4568 4.92391 49.9922 5.38845C49.5276 6.31751 48.5983 6.31762 49.5275 7.24668C50.4566 8.64027 49.9922 8.17566 52.3151 8.17566C53.7088 8.17566 53.2442 8.17571 52.3151 9.10478L51.8503 9.56933C50.9212 10.9629 52.315 10.9629 51.3859 10.9629C51.3859 10.9629 50.9211 11.4275 50.9211 11.892C50.9211 11.892 49.9921 12.821 50.4567 14.2146C50.4567 14.2146 50.4567 14.2145 50.4567 14.6791C50.4567 15.1436 49.0629 18.8599 49.5275 19.7889C48.1337 19.7889 46.2756 19.7889 45.3465 19.7889C45.3465 19.7889 43.0235 19.789 43.488 20.2535C43.488 20.2535 55.1023 20.2535 55.5669 20.2535C56.0315 20.2535 56.4961 20.2535 57.4253 20.2535H56.9608L57.8898 19.7889L57.4253 20.2535C54.6378 22.5761 52.3149 25.3634 47.2046 23.5053C47.2046 23.5053 46.7401 23.5052 46.7401 23.0407C41.6298 21.1826 42.0944 17.0018 42.0944 13.7501V4.45947C41.6298 0.743224 42.5588 -0.65034 47.2046 0.278721ZM49.9922 19.7889C49.5276 18.8599 49.9921 18.3954 50.4567 17.9308C50.4567 17.9308 50.9211 16.5372 50.9211 17.0017C50.9211 17.4662 51.3859 19.3245 52.3151 18.8599C52.7797 18.8599 56.0316 18.3954 56.0316 18.8599C56.0316 19.3245 56.0316 18.8598 56.0316 19.3244V19.7889C53.2442 19.3244 50.4568 19.3244 49.9922 19.7889ZM47.2046 79.7134C48.5983 79.7134 49.5274 79.2489 50.9211 78.7844C53.7086 77.8553 56.0316 76.9262 58.3545 75.9972C57.8899 75.9972 57.4253 75.9972 57.4253 75.9972C55.1024 75.9972 53.7088 75.9972 51.3859 75.9972C49.5276 75.9972 47.2048 75.9972 45.3465 75.9972C43.9527 75.9972 44.8819 75.9972 43.0236 75.9972C43.0236 75.9972 43.0235 75.068 43.488 75.068C44.8818 75.068 44.4171 75.068 46.2754 75.068V74.6036C46.74 72.7455 47.2048 72.2809 47.6693 71.3519C48.1339 70.8873 47.2047 69.9583 46.7401 69.4938C46.7401 69.4938 46.2754 69.4938 46.2754 69.9583C45.3462 70.4229 45.8109 70.4227 45.8109 70.4227C45.3463 70.4227 44.4171 69.9583 44.8817 69.0292C45.3463 68.1001 45.8108 67.6356 46.2754 67.1711C46.74 67.1711 47.2046 66.7066 47.2046 66.7066C47.2046 67.1711 47.2048 67.1711 47.6693 67.1711C48.1339 67.1711 48.5984 67.1711 49.063 67.6357C49.063 67.1711 49.5275 67.1711 49.5275 66.7066C49.992 66.242 49.9921 65.7775 50.4567 65.313C50.4567 65.313 50.9212 64.8485 50.4567 64.8485C49.9921 64.3839 49.9921 64.3839 50.4567 63.9193C50.9212 63.4548 51.8503 63.4548 51.8503 63.9193C52.3149 64.8484 51.3858 65.313 51.8503 64.8485L52.7795 63.9193V63.4548C52.7795 62.9902 52.7794 62.5258 53.244 62.5258C52.7794 62.0613 51.8504 62.0613 52.7795 62.9904C52.315 62.9904 51.3857 62.0612 50.9211 61.5967C50.4566 60.6676 51.8505 61.1321 52.3151 61.1321C52.3151 60.6676 51.8503 60.6677 51.8503 60.6677C51.8503 60.6677 51.8504 59.7386 52.7795 60.2031C52.7795 60.2031 52.315 58.8095 53.7088 59.7386C54.1733 60.2031 55.567 61.5967 55.1024 62.0612L54.1732 61.5967C53.7086 61.5967 54.638 62.5258 54.638 62.5258C55.1025 62.9903 55.567 62.9902 55.1024 63.4548C54.6378 63.9193 55.1024 63.9193 54.1732 63.4548L54.638 63.9193H54.1732C54.1732 64.3839 54.1732 64.3839 54.1732 65.313C54.1732 65.7775 52.7795 66.7066 52.7795 67.1711C52.7795 67.6356 52.7795 68.1001 52.7795 68.5646C52.7795 69.4937 53.7088 69.0293 54.638 69.9583C55.5671 69.9583 56.9607 70.4229 57.4253 72.281C57.4253 72.7455 57.8899 73.21 58.3545 73.6745C57.8899 74.6036 57.4254 74.1391 56.9608 74.1391C56.0317 73.6745 56.4962 71.8164 55.1024 71.3519C55.567 71.3519 55.1024 72.2809 55.1024 72.7454C55.1024 72.7454 55.5669 72.7454 55.5669 73.21C55.5669 73.6745 55.5671 74.139 56.0316 75.068C56.0316 75.068 56.4961 75.0681 56.4961 75.9972C56.4961 75.9972 56.0315 75.9972 55.5669 75.9972C55.1023 75.9972 55.1024 75.9971 55.1024 75.5326C54.6378 74.6035 54.6378 74.1391 54.1732 74.1391C54.1732 74.1391 53.7086 75.0681 53.244 75.5326C53.244 75.5326 53.2441 75.9972 52.7795 75.9972C52.7795 75.9972 52.7795 75.9972 52.7795 76.4617C54.1733 76.4617 56.9608 76.4617 59.2837 76.4617H59.7482C60.6773 75.9972 61.6064 75.0682 62.5355 74.6036C66.2521 71.8164 65.7877 69.9583 63.0003 67.1711L56.4961 60.6677C53.7086 58.3451 51.3857 55.5578 46.2754 57.4159C46.2754 57.4159 45.8109 57.416 45.8109 57.8805C40.7006 59.7386 41.1652 63.9194 41.1652 67.1711V76.4617C41.6297 79.2489 42.5588 80.6424 47.2046 79.7134ZM47.6693 75.5326C47.6693 75.0681 47.6693 75.068 47.6693 75.068L48.1338 73.6745C48.5984 73.21 49.063 72.7454 49.063 72.7454C49.063 72.7454 49.063 73.21 49.063 73.6745C49.063 74.139 49.5275 74.6035 49.5275 75.068C49.5275 75.5326 49.9921 75.5326 50.4567 75.5326C50.4567 75.0681 50.4568 74.6036 49.9922 74.6036L49.5275 74.1391C49.5275 73.6745 49.9921 73.21 50.4567 73.21C51.3858 73.21 51.3859 73.21 52.3151 73.21C52.7797 73.21 52.7795 73.21 52.7795 73.6745C53.2441 74.139 53.244 74.1391 53.244 74.1391C53.244 74.6036 52.3151 75.0681 52.3151 75.5326C52.3151 75.5326 52.3149 75.9972 51.8503 75.9972C50.9212 75.5326 49.0631 75.5326 47.6693 75.5326ZM0.282584 32.7959C0.282584 31.4023 0.747216 30.4731 1.21179 29.0795C2.14094 25.8278 3.53461 22.5761 4.92834 19.7889C5.39291 18.8599 6.32189 17.9308 6.78647 17.0017C9.57392 13.2855 11.4324 13.7501 14.2198 16.5373L20.7237 23.0407C23.0466 25.8279 25.8341 28.1504 23.9758 33.2603C23.9758 33.2603 23.9759 33.7248 23.5114 33.7248C21.6531 38.8347 17.4719 38.3702 14.2198 38.3702H4.92834C0.747159 38.3702 -0.646567 37.4412 0.282584 32.7959ZM8.18042 16.0727C8.18042 16.5373 8.64488 16.5372 8.64488 17.0017C8.64488 17.0017 8.18042 17.9309 8.18042 18.3954C8.18042 18.8599 8.18031 19.3244 8.64488 19.7889H9.10935C9.10935 19.7889 9.10935 19.7889 9.10935 19.3244C9.10935 19.3244 9.10935 19.3245 9.10935 18.8599C9.10935 17.9309 10.0386 18.3953 10.0386 17.4663C10.5031 17.0017 10.9678 17.4663 10.9678 17.4663C11.4323 17.4663 11.4322 18.3953 11.4322 19.3244C10.9676 20.2534 10.9678 20.7181 10.9678 21.1826C10.5032 21.1826 9.57392 20.718 9.10935 20.718C8.64477 20.718 8.64488 21.1826 8.64488 21.1826C8.64488 21.1826 8.64477 21.647 9.10935 21.647C9.57392 21.647 10.5031 21.647 11.4322 21.647C11.4322 22.1115 11.4322 23.5052 11.4322 25.3633C8.64477 27.2215 6.32189 29.0796 6.78647 30.0087C7.25104 30.9377 7.71562 29.5441 9.10935 29.0795C9.10935 29.0795 10.5032 28.6151 11.897 27.686C11.897 28.6151 11.897 29.0796 11.897 29.5441C11.4324 29.5441 10.5031 29.5441 10.0386 29.5441C10.0386 29.5441 10.0386 30.0087 10.0386 30.4732C10.0386 32.3313 9.57392 34.6539 9.10935 36.5121V36.9766L11.897 37.4412C12.3615 37.4412 13.2905 37.4412 13.7551 37.4412H16.5427C16.5427 37.4412 16.5427 36.9766 16.5427 36.5121C16.0781 35.1185 15.6136 32.3312 15.1491 30.9376C15.1491 30.0086 15.1491 29.5441 15.1491 29.5441H14.6843C14.2197 29.5441 13.7552 29.5441 13.2906 29.5441C13.2906 29.0796 13.2906 28.1505 13.2906 27.2214C16.0781 25.8278 18.8656 23.9697 18.8656 23.9697C18.401 22.5761 15.6135 23.5052 13.2906 24.8988C13.2906 23.9697 13.2906 23.0407 13.2906 23.0407C13.2906 22.5762 13.7551 22.1116 13.7551 22.1116V21.1826C14.6843 21.1826 15.6134 21.1826 16.078 21.1826C16.5426 21.1826 16.5427 20.718 16.5427 20.2535C16.5427 19.789 16.5426 19.7889 16.078 19.7889C15.1488 19.7889 14.2197 20.2535 13.7551 20.2535C13.7551 19.3244 14.2197 17.9308 13.7551 17.0017C13.2905 16.0727 11.897 15.1437 10.5033 16.5373C9.10957 16.5373 8.645 16.0727 8.18042 16.0727ZM11.4322 26.2923V25.8279C13.2905 24.8988 14.6845 23.9697 15.1491 24.4342C15.1491 24.4342 13.2905 25.3633 11.4322 26.2923ZM10.5033 26.2923V26.7569C10.0387 27.2214 9.57409 27.2214 9.57409 27.2214C8.64494 27.686 6.78664 29.0795 7.25121 28.615C7.25121 28.615 9.10957 27.2214 10.5033 26.2923ZM10.9678 31.4022C12.3615 31.4022 12.8262 32.3312 12.8262 33.2603C12.8262 34.1893 11.8968 34.654 11.4322 34.654C10.5031 34.654 10.0387 34.1893 9.57409 33.2603C9.10952 32.7958 9.57403 31.4022 10.9678 31.4022ZM9.10935 17.4663C9.10935 17.9308 9.10935 17.9308 9.10935 17.4663C8.64477 17.4663 8.64477 17.4663 9.10935 17.4663ZM8.64488 17.4663H9.10935C9.10935 17.4663 9.10946 17.9308 8.64488 17.9308H8.18042C8.645 17.4663 8.64488 17.4663 8.64488 17.4663ZM12.3614 30.0087C11.8969 30.0087 10.9678 30.0087 9.57409 30.0087C9.10952 30.0087 9.10935 30.0087 9.10935 30.4732C9.10935 31.4023 8.64488 33.7249 8.64488 35.1185C8.64488 35.583 8.18031 36.0475 8.64488 36.0475C10.0386 36.0475 13.2906 36.0475 13.2906 36.0475V35.5829C13.2906 34.6539 12.826 32.7958 12.3614 31.8667C12.826 30.9377 12.826 30.4732 12.3614 30.0087ZM79.7249 32.7959C79.7249 31.4023 79.2602 30.4731 78.7957 29.0795C77.8665 25.8278 76.4728 22.5761 75.0791 19.7889C74.6145 18.8599 73.6855 17.9308 73.221 17.0017C71.8272 15.1436 70.8979 14.2146 69.5042 14.2146C69.5042 16.0728 69.5042 18.3954 69.5042 18.8599C69.5042 19.3245 69.5042 20.2535 69.5042 20.718C69.9687 20.718 70.4335 20.718 70.8981 20.718C72.2918 20.718 72.2918 20.7181 72.2918 21.1826C72.2918 21.6471 71.8271 22.1116 71.3626 22.1116C70.4334 22.1116 69.0397 22.1115 67.646 21.647C67.646 22.5761 67.6458 24.4342 69.5042 24.4342C69.5042 24.4342 69.9689 24.4342 69.9689 23.9697C70.4335 23.5051 71.3626 23.0406 71.3626 24.4342L70.4333 24.8988C69.9688 28.1505 72.2918 31.8668 73.221 34.1894C73.221 35.1185 68.5752 36.512 65.3231 35.5829C63.0003 35.1184 60.2128 35.1185 62.0711 32.3313C62.5356 31.4022 63.4647 26.7569 63.4647 24.8988C63.0001 24.8988 62.5355 24.4342 62.5355 24.4342C62.5355 23.9697 63.0001 23.9697 63.4647 23.9697C63.9293 23.9697 63.9295 23.9697 63.9295 24.4342C65.3232 24.4342 65.7876 24.4342 65.7876 22.1116C64.8584 22.1116 63.4647 22.5761 62.5355 22.5761C62.0709 22.5761 61.6066 22.1115 61.6066 21.647C61.6066 21.647 61.6065 21.6471 63.0003 21.1826C63.0003 21.1826 63.4649 21.1826 63.9295 21.1826V20.2535C63.9295 19.3244 63.9295 19.3244 63.9295 19.3244V18.3954L59.2837 23.0407C56.9608 25.8279 54.1733 28.1504 56.0316 33.2603C56.0316 33.2603 56.0315 33.7248 56.4961 33.7248C58.3544 38.8347 62.5356 38.3702 65.7876 38.3702H75.0791C79.2603 38.3702 80.654 37.4412 79.7249 32.7959ZM69.0397 14.2146C68.1105 14.2146 67.1813 15.1437 65.7876 16.5373L64.8584 17.4663C64.8584 18.3953 64.8584 19.3244 64.8584 19.7889C64.8584 20.2535 64.8584 20.2535 64.8584 20.718C65.7875 20.718 66.2521 20.718 67.1813 20.718C68.1104 20.718 68.5751 20.718 69.0397 20.718C69.0397 20.2535 69.0397 19.7889 69.0397 19.3244C69.0397 18.3953 69.0397 15.6082 69.0397 14.2146ZM63.9295 29.0795C63.9295 30.4731 66.2522 30.4732 66.7168 30.0087C66.7168 29.5441 66.7169 29.0795 66.2523 29.0795C66.2523 29.0795 65.323 29.0796 65.7876 29.5441C66.2522 29.5441 66.2523 30.0087 66.2523 30.0087C66.2523 30.4732 65.3231 30.4732 65.3231 29.5441C65.3231 28.615 66.2522 28.1504 66.7168 28.615C66.7168 27.6859 67.1814 27.686 67.646 27.686C68.1106 27.686 68.1107 27.686 68.5752 28.1506C69.0398 28.6151 68.5751 29.0795 68.1105 29.0795C67.6459 29.0795 67.646 28.615 67.646 28.615H67.1813C67.1813 29.0795 67.646 29.5441 67.646 29.5441C67.646 29.5441 68.1107 29.0795 68.5752 29.0795C69.5044 29.0795 69.5043 30.4732 69.0397 30.4732C68.5751 30.4732 68.1107 30.0087 68.5752 30.0087C68.5752 29.5441 68.1105 30.0087 68.1105 30.0087C67.6459 30.4732 68.1105 30.4731 68.1105 30.9376C68.1105 31.4022 69.0396 31.4022 69.5042 30.9376C69.9687 30.4731 69.9689 29.5441 69.9689 29.0795C69.9689 29.0795 69.5042 28.615 69.5042 29.0795C69.5042 29.5441 69.0397 29.5441 69.0397 29.0795C69.0397 28.615 69.5042 28.1504 70.4333 28.615C70.8979 29.0795 70.8981 29.0795 70.8981 29.0795C70.8981 25.3633 63.4649 24.4342 63.9295 29.0795ZM62.5355 47.1962C65.7875 46.7317 66.7168 49.5189 66.7168 51.8415C66.7168 54.1642 64.8586 55.5578 63.0003 55.5578C61.142 55.5578 59.2835 54.1642 58.819 52.3061C58.819 50.4479 59.7481 47.6607 62.5355 47.1962ZM79.7249 47.1962C79.7249 48.5898 79.2602 49.5189 78.7957 50.9125C77.8665 54.1642 76.4728 57.416 75.0791 60.2031C74.6145 61.1322 73.6855 62.0613 73.221 62.9904C70.4335 66.7066 68.5751 66.242 65.7876 63.4548L59.2837 56.9514C56.9608 54.1642 54.1733 51.8416 56.0316 46.7318C56.0316 46.7318 56.0315 46.2672 56.4961 46.2672C58.3544 41.1574 62.5356 41.6219 65.7876 41.6219H69.9689C68.5752 43.0155 68.1105 50.4479 68.1105 52.3061C68.1105 64.3839 72.7563 62.5258 71.3626 60.6677V60.2031C71.3626 59.7386 71.3625 59.7386 71.827 59.274C72.2916 58.8095 72.7564 58.345 73.221 57.4159C73.221 57.4159 73.6854 57.4159 73.6854 56.9514C74.6146 56.0223 74.6145 55.0933 75.0791 53.6997C75.0791 53.2352 75.0791 52.7706 75.0791 52.3061C76.0083 52.3061 76.9374 52.7706 77.402 52.3061C77.8666 52.3061 78.7958 50.9125 78.3312 50.9125C78.3312 50.448 77.4021 50.9125 74.6147 50.9125C74.6147 50.448 75.0792 49.519 74.6147 49.0544C74.6147 48.1254 74.1501 46.7317 73.221 45.8027L72.7562 45.3381C71.8271 44.8736 71.3626 43.9445 71.3626 43.48C71.3626 43.0155 70.8981 43.0154 70.8981 42.5509V42.0865C71.3627 41.6219 71.3627 41.1573 70.8981 40.6928H75.0791C79.2603 41.6219 80.654 42.5509 79.7249 47.1962ZM72.2918 52.7706C71.3626 52.7706 70.4335 52.7706 69.9689 52.7706C69.5043 52.7706 69.0397 52.7707 69.0397 53.6997C69.0397 55.0933 69.5042 56.4869 69.5042 57.4159C69.9687 56.9514 70.4335 56.4869 70.8981 56.0224C71.3627 55.5579 71.827 54.6287 71.827 54.1642C72.7562 53.6996 72.7563 53.2352 72.2918 52.7706ZM72.2918 51.3771C72.7563 50.9126 72.7562 50.4479 72.7562 49.5189C72.7562 48.5898 72.2916 48.1253 71.827 47.6608C71.3625 47.1962 70.8979 46.7318 70.4333 46.2672C69.9688 47.6608 69.9689 49.0544 69.9689 50.9125C69.5043 51.8416 70.898 51.3771 72.2918 51.3771ZM63.0003 49.5189C64.394 49.5189 65.3231 50.448 65.3231 51.3771C65.3231 52.7707 63.9294 53.6997 63.0003 53.6997C61.6065 53.6997 60.6774 52.7707 60.6774 51.3771C61.142 50.448 62.0711 49.5189 63.0003 49.5189ZM18.4009 44.8736C20.2592 44.409 20.7237 46.2671 20.7237 47.1962C20.7237 48.1253 19.7947 49.0544 18.8656 49.0544C17.9364 49.0544 17.0073 48.1253 16.5427 47.1962C16.5427 46.7317 17.0071 45.3381 18.4009 44.8736ZM0.282584 47.1962C0.282584 48.5898 0.747216 49.5189 1.21179 50.9125C1.67637 52.3061 2.14089 53.6997 2.60546 55.0933H3.06992C3.06992 54.6288 3.06992 54.6287 3.06992 54.1642C4.92822 54.6287 7.25104 54.1642 9.10935 54.1642V55.0933C10.0385 55.0933 10.9678 55.0933 11.897 55.0933V54.1642C13.7553 54.1642 15.6136 54.1642 17.4719 54.1642C17.4719 54.6287 17.4719 54.6288 17.4719 55.0933C17.4719 55.5578 17.9364 55.5578 17.9364 55.5578C18.401 55.5578 19.7947 55.5578 20.2593 55.5578V56.4868C19.3301 56.4868 15.6136 56.4868 14.2198 56.4868C14.2198 56.4868 7.25104 56.4868 6.78647 56.4868C6.32189 56.4868 4.46359 56.4868 2.14072 56.4868C2.60529 57.8804 3.53456 58.8096 3.99913 60.2031C4.46371 61.1322 5.39297 62.0613 5.85755 62.9904C8.645 66.7066 10.5032 66.242 13.2906 63.4548L19.7948 56.9514C22.1177 54.1642 24.9049 51.8416 23.0466 46.7318C23.0466 46.7318 23.0467 46.2672 22.5821 46.2672C20.7238 41.1574 16.5427 41.6219 13.2906 41.6219H3.99913C0.747103 41.6219 -0.646567 42.5509 0.282584 47.1962ZM18.8656 46.2672C19.3302 46.2672 20.2593 46.7317 20.2593 47.1962C20.2593 47.6607 19.7947 48.5899 18.8656 48.5899C18.401 48.5899 17.4719 48.1253 17.4719 47.1962C17.4719 46.2671 17.9364 46.2672 18.8656 46.2672ZM8.64488 47.6608C7.25116 48.1253 9.57415 48.1253 10.5033 48.1253C12.8262 48.1253 12.3614 48.1253 11.4322 47.1962C10.5031 47.1962 9.57403 46.7317 8.64488 47.6608ZM11.897 53.2352V54.1642C13.7553 54.1642 16.0782 54.1643 17.4719 53.6997C17.4719 53.2352 17.4718 52.7706 17.0072 52.3061C15.6135 52.7706 13.7553 52.7707 11.897 53.2352ZM3.06992 52.7706C3.06992 53.2352 3.06992 53.6996 3.06992 54.1642C5.3928 54.1642 7.25104 54.1642 9.10935 54.1642V52.7706C7.25104 52.7706 4.92822 52.7706 3.06992 52.7706ZM7.71568 47.6608C7.2511 48.1253 3.99924 49.9834 3.53467 50.448C3.53467 50.448 3.06992 51.377 3.06992 52.3061C4.92822 52.3061 6.78658 52.3061 8.64488 52.3061V51.3771H9.57409H11.4322V52.3061C13.2905 51.8415 15.1489 52.306 17.0072 51.8415C17.0072 51.377 17.0073 51.3771 16.5427 50.9125C16.0781 49.5189 16.078 49.9835 14.6843 49.0544C13.7552 48.5899 12.3615 47.6608 10.9678 46.7318C10.5032 46.2673 9.57403 46.2673 8.64488 46.7318V45.8027V47.1962C8.18031 47.1962 8.18025 47.6608 7.71568 47.6608Z" fill="white"/>
</svg>
