<svg width="60" height="60" viewBox="0 0 60 60" fill="none" xmlns="http://www.w3.org/2000/svg">
<path d="M51.25 12.5H31.25V47.5H51.25C51.9413 47.5 52.5 46.9412 52.5 46.25V13.75C52.5 13.0588 51.9413 12.5 51.25 12.5Z" fill="#FC5E52"/>
<path d="M40 19H50V21.4432H40V19ZM33.5 23.8877H50V26.3321H33.5V23.8877ZM33.5 28.7778H50V31.2222H33.5V28.7778ZM33.5 33.6667H50V36.1099H33.5V33.6667ZM40 38.5543H50V41H40V38.5543Z" fill="white"/>
<path d="M31 19H38V21.4432H31V19ZM31 23.8877H38V26.3321H31V23.8877ZM31 28.7778H38V31.2222H31V28.7778ZM31 33.6667H38V36.1099H31V33.6667ZM31 38.5543H38V41H31V38.5543Z" fill="white"/>
<path d="M33.75 52.5L7.5 47.5V12.5L33.75 7.5V52.5Z" fill="#CF1F10"/>
<path d="M29.9742 32.5534C29.9541 32.4035 29.8362 32.2155 29.7097 32.0891C29.3474 31.7248 28.551 31.5338 27.3376 31.5162C26.5153 31.5073 25.5262 31.5808 24.4853 31.7307C24.0195 31.4574 23.5393 31.1577 23.1627 30.7963C22.1477 29.8296 21.3024 28.4868 20.7733 27.0088C20.8078 26.8707 20.8366 26.7502 20.8653 26.6268C20.8653 26.6268 21.4346 23.3124 21.2851 22.19C21.265 22.0372 21.2506 21.9931 21.2104 21.8727L21.1615 21.7434C21.0062 21.3761 20.7014 20.9882 20.2241 21.0088L19.9424 21H19.9366C19.4018 21 18.9705 21.2791 18.8555 21.6934C18.5105 22.998 18.867 24.952 19.5139 27.4789L19.3472 27.8903C18.8843 29.048 18.3035 30.2116 17.7916 31.237L17.7255 31.3692C17.185 32.4476 16.6962 33.3643 16.2505 34.1401L15.7933 34.3869C15.7588 34.4045 14.9739 34.8306 14.7899 34.9422C13.2286 35.8972 12.1935 36.9785 12.021 37.8364C11.9663 38.1126 12.0066 38.4623 12.2855 38.6239L12.7283 38.8531C12.9209 38.95 13.1251 39 13.3321 39C14.4448 39 15.7358 37.5837 17.5156 34.4104C19.5686 33.7287 21.9091 33.1587 23.9591 32.8472C25.5204 33.7434 27.4411 34.3692 28.6545 34.3692C28.8701 34.3692 29.057 34.3487 29.2065 34.3075C29.4394 34.2429 29.6349 34.1077 29.7557 33.9256C29.9915 33.5642 30.0375 33.0646 29.9742 32.5534ZM13.0906 38.1391C13.2918 37.572 14.0969 36.4496 15.2844 35.4564C15.3592 35.3947 15.5432 35.2184 15.7099 35.0539C14.4678 37.0784 13.6369 37.8834 13.0906 38.1391ZM20.1235 21.5877C20.48 21.5877 20.6842 22.5073 20.7014 23.3712C20.7187 24.2351 20.5203 24.8404 20.2759 25.2899C20.0717 24.6259 19.974 23.5798 19.974 22.8952C19.974 22.8952 19.9596 21.5877 20.1235 21.5877ZM18.0245 33.382C18.2747 32.9265 18.5335 32.4447 18.798 31.9363C19.4449 30.6876 19.8532 29.712 20.1551 28.9099C20.7589 30.0323 21.5123 30.9873 22.395 31.7512C22.5071 31.8452 22.625 31.9422 22.7458 32.0392C20.9487 32.4006 19.3932 32.8443 18.0245 33.382ZM29.3618 33.2791C29.2525 33.3467 28.9391 33.3879 28.7379 33.3879C28.088 33.3879 27.2801 33.0852 26.1501 32.5886C26.5843 32.5563 26.9839 32.5387 27.3405 32.5387C27.9932 32.5387 28.1858 32.5357 28.827 32.7032C29.4653 32.8707 29.4739 33.2086 29.3618 33.2791Z" fill="white"/>
</svg>
