<svg width="108" height="109" viewBox="0 0 108 109" fill="none" xmlns="http://www.w3.org/2000/svg">
<g opacity="0.12">
<path fill-rule="evenodd" clip-rule="evenodd" d="M31.1129 92.4595C31.1129 93.0902 30.4857 93.721 31.1129 94.3517C31.7401 94.3517 31.1129 92.4595 31.1129 92.4595C31.1129 91.8288 31.1129 91.8288 31.1129 92.4595ZM44.2839 108.227C42.4023 108.227 41.1481 107.596 39.2665 106.966C35.5035 105.704 32.3674 104.443 29.2315 103.181H51.8101C51.1829 107.596 49.9285 109.488 44.2839 108.227ZM28.6044 103.181C27.9773 103.181 27.35 102.551 27.35 102.551C26.0957 101.92 24.8415 100.659 23.5871 100.028C18.5697 96.2437 19.1966 93.7209 22.9597 89.9368L31.7403 81.1071C35.5034 77.9536 38.6393 74.1694 45.5383 76.6922C45.5383 76.6922 46.1653 76.6922 46.1653 77.3229C53.0643 79.8457 52.4371 85.5219 52.4371 89.9368V102.551V103.181H42.4024C44.2839 101.289 43.0296 100.028 39.2665 98.7664C37.385 98.1357 36.7575 96.2437 37.3847 96.2437C38.0119 96.2437 38.6392 96.2437 39.8935 95.613C40.5207 96.8744 41.1478 95.6131 41.775 94.9824C41.775 94.3517 42.4024 94.3517 42.4024 94.3517L43.0294 93.721H43.6565H44.2839L44.9109 94.9824C44.9109 94.9824 44.9109 94.9824 44.9109 94.3517L44.2839 93.721C44.911 93.721 45.5383 93.721 45.5383 93.721L44.9109 92.4595C44.2837 93.0902 44.2836 93.0902 43.6565 93.0902L43.0294 91.829C43.0294 91.829 43.0294 91.8288 43.0294 92.4595L43.6565 93.0902C43.6565 93.0902 43.6565 93.0903 43.6565 93.721C43.6565 93.721 43.0294 93.721 43.0294 94.3517C43.0294 93.721 41.775 94.3517 41.775 94.3517C40.5206 93.721 40.5206 93.721 40.5206 94.3517C39.2662 94.9824 38.6391 94.9823 38.6391 93.0902C38.6391 91.8288 38.639 90.5675 37.3847 89.9368C37.3847 89.9368 35.5035 89.3062 36.1306 88.6755C38.6393 86.1527 34.249 85.5219 33.6218 86.1526C32.3674 86.7833 32.3676 88.0448 32.9948 88.6755C34.2491 89.9369 32.9947 89.9368 31.7403 90.5675C31.1131 91.1982 30.4859 93.0903 30.4859 94.3517C29.2315 97.5052 32.3673 96.8745 32.3673 97.5052C32.3673 99.3973 29.2316 101.289 31.7403 103.812L28.6044 103.181ZM33.6218 94.3517C34.249 94.9824 34.8762 94.9823 34.8762 96.2437H34.2488C33.6216 95.613 33.6218 95.613 33.6218 95.613C33.6218 96.2437 32.9945 96.8744 32.3673 95.613C32.3673 95.613 32.3675 95.613 31.7403 95.613C31.1131 96.2437 31.1129 96.2437 31.1129 96.8744C31.1129 98.1358 35.5035 97.5051 36.1306 96.2437C36.1306 95.613 36.1306 95.6131 36.1306 94.9824C37.385 94.3517 38.6392 93.7209 39.8935 93.0902V92.4595L36.7577 93.721H36.1306C36.1306 93.721 36.1304 93.721 35.5032 93.721C34.8761 93.721 34.249 93.721 33.6218 94.3517ZM40.5206 83.6298C40.5206 84.2605 41.7749 85.522 43.6565 85.522C44.9108 85.522 46.7923 83.63 46.7923 82.3686C46.7923 80.4765 44.9108 79.2151 43.6565 79.2151V79.8456C44.9108 81.7377 43.6565 83.6298 40.5206 83.6298ZM41.775 84.2606C42.4022 84.8913 42.4021 84.2606 43.6565 84.2606C44.2836 84.2606 45.5383 83.63 45.5383 82.3686C45.5383 80.4765 44.9109 81.1071 44.9109 81.1071C44.9109 82.3685 43.6565 84.2606 41.775 84.2606C41.775 83.6299 41.775 83.6299 41.775 84.2606ZM44.2839 0.37842C42.4023 0.37842 41.1481 1.009 39.2665 1.63969C34.8763 2.90108 30.486 4.79327 26.723 6.68535C25.4686 7.31605 24.2141 8.5774 22.9597 9.20809C17.9423 12.9923 18.5696 15.5151 22.3327 19.2992L31.1129 28.1289C34.876 31.2824 38.0119 35.0664 44.9109 32.5436C44.9109 32.5436 45.5383 32.5438 45.5383 31.9131C52.4372 29.3903 51.8101 23.7141 51.8101 19.2992V6.68535C51.8101 1.00911 50.5556 -0.882967 44.2839 0.37842ZM39.8935 23.714V24.3447C39.2664 24.3447 38.6393 24.3447 38.0121 24.3447C37.3849 24.3447 36.7577 23.714 38.0121 23.714H39.8935ZM39.8935 16.1458V16.7763C39.2664 16.7763 38.6393 16.7763 38.0121 16.7763C37.3849 16.7763 36.7577 16.1458 38.0121 16.1458H39.8935ZM38.0121 9.20809C37.3849 8.5774 37.3849 7.94674 38.0121 6.68535C38.0121 6.05466 38.6391 6.05462 38.6391 6.05462L39.2665 5.42389C39.2665 4.7932 39.8935 4.79312 39.8935 4.16243C39.8935 4.16243 39.8935 4.16258 39.8935 3.53189V4.16243C39.8935 4.79312 39.8937 4.7932 39.2665 5.42389C38.6393 6.05458 38.0119 7.31593 38.6391 7.94663C39.2663 8.57732 39.8935 7.94663 39.8935 7.94663C39.8935 7.94663 39.8935 7.94659 39.8935 7.31589C39.8935 7.31589 39.8937 7.31589 39.2665 7.31589C38.6393 7.31589 38.6392 6.05462 39.8935 6.05462C40.5207 6.05462 41.148 6.05466 41.148 6.68535C41.7752 7.31605 41.1477 8.57736 40.5206 8.57736C39.8934 9.83875 38.6393 9.83878 38.0121 9.20809ZM36.1306 9.83882C36.7578 10.4695 37.3848 10.4694 38.6391 10.4694H41.148C41.7752 10.4694 42.4023 10.4694 43.0294 10.4694C44.2838 11.1001 44.2839 12.3614 44.2839 13.6228C43.6567 13.6228 43.0294 13.6228 41.775 13.6228C41.775 13.6228 41.775 14.2536 41.775 14.8843C41.775 19.2991 41.775 23.0833 41.775 27.4982C41.1478 27.4982 40.5209 27.4982 39.2665 27.4982C38.6393 27.4982 38.0121 27.4982 38.0121 28.1289C38.6393 28.1289 41.1481 28.1289 42.4024 28.1289V23.0832C43.0296 23.0832 43.6567 22.4527 44.2839 22.4527C44.2839 23.7141 44.2839 27.4981 44.2839 29.3902C41.7752 29.3902 39.8935 29.3902 36.7577 29.3902C36.7577 28.1288 36.7577 26.8674 38.0121 26.2367C38.6393 26.2367 39.2664 25.6062 39.8935 25.6062H41.148V24.9754C40.5208 24.9754 40.5209 24.9754 39.2665 24.9754C38.0122 24.9754 36.7577 24.3447 36.7577 23.714C36.7577 22.4526 37.385 21.822 39.2665 21.822H41.148V19.2992C40.5208 19.2992 40.5206 19.2991 40.5206 19.9298C40.5206 20.5605 39.8935 21.1912 38.6391 21.1912C38.0119 21.1912 37.3848 21.1912 36.7577 20.5605C36.1305 19.9298 36.1305 19.2992 36.7577 18.6685C37.3848 18.0378 38.6391 18.0378 38.6391 18.6685V19.2992C38.0119 19.2992 38.0122 19.9298 39.2665 19.9298C39.8937 19.9298 39.8935 19.2992 39.8935 18.6685C39.8935 18.0378 40.5208 17.407 41.148 17.407H41.775V18.0378C41.1478 18.0378 41.1479 18.0378 39.8935 18.0378C38.6392 18.0378 37.3847 17.407 37.3847 16.7763C37.3847 15.5149 38.012 14.8843 39.8935 14.8843H41.775C41.775 14.2536 41.7752 14.2536 41.148 14.2536C40.5208 14.2536 39.2663 14.2536 38.6391 14.2536C38.6391 13.6229 38.6393 13.623 38.0121 12.9923C39.8936 12.9923 41.7749 12.9923 43.6565 12.9923C43.6565 12.9923 43.6566 12.3616 43.0294 12.3616H40.5206C39.8934 12.3616 39.2665 12.3616 39.2665 12.3616H38.6391C36.1304 11.7309 36.1306 11.1002 36.1306 9.83882ZM63.7262 0.37842C65.6077 0.37842 66.862 1.009 68.7435 1.63969C73.1338 2.90108 77.524 4.79327 81.2871 6.68535C82.5414 7.31605 83.796 8.5774 85.0504 9.20809C90.0678 12.9923 89.4404 15.5151 85.6774 19.2992L78.1512 26.8674C77.524 26.8674 76.2699 26.8674 75.6427 26.8674C75.6427 26.8674 76.2697 26.2368 76.2697 25.6062C76.2697 24.9755 76.8971 23.7139 76.8971 23.0832C76.8971 22.4525 74.3884 22.4527 73.7612 22.4527C73.7612 22.4527 72.5066 22.4527 71.8794 22.4527C71.8794 22.4527 71.2522 20.5605 71.8794 20.5605C72.5066 20.5605 73.7612 20.5605 73.7612 19.9298C73.1341 19.2991 69.998 17.407 71.2524 16.7763C72.5067 16.7763 71.2525 16.7764 72.5068 16.1458C73.7612 15.5151 73.1341 14.8843 73.7612 15.515C75.0156 16.7764 75.6426 16.7763 77.5241 16.7763C79.4057 16.1456 79.4055 17.4071 81.2871 15.515C81.2871 15.515 81.9145 14.8843 81.9145 14.2536C82.5416 12.3615 81.9142 11.7309 81.2871 12.3616V12.9923C81.2871 13.623 81.2874 14.2535 80.033 13.6228C79.4058 13.6228 78.1513 13.623 76.2697 12.9923C75.6425 12.9923 75.6425 12.3615 75.0153 11.7308C74.3881 11.1001 73.7611 10.4695 74.3883 9.83882L75.0153 9.20809C75.0153 9.20809 75.0155 9.20813 75.6427 9.83882H76.2697C76.2697 9.83882 76.2697 9.83867 76.2697 10.4694C76.2697 11.1001 76.27 11.1001 76.8971 11.1001C76.8971 11.1001 76.897 11.1001 77.5241 11.1001C77.5241 11.1001 77.524 11.1001 78.1512 11.1001C78.1512 11.1001 78.7786 11.1001 78.7786 10.4694C78.1514 10.4694 78.1512 10.4694 78.1512 10.4694C78.1512 9.83867 78.1513 9.20809 77.5241 9.20809C77.5241 9.20809 77.5243 9.20809 76.8971 9.20809L77.5241 8.57736C78.1513 7.31597 75.6428 6.05451 73.7612 7.31589C73.1341 7.94659 72.5069 9.20813 73.7612 9.83882C73.7612 9.83882 74.3884 10.4695 72.5068 9.83882C71.2525 9.20813 68.7437 9.83878 68.1165 9.20809C66.8621 8.5774 68.7435 7.94659 68.7435 7.31589C68.7435 7.31589 68.1166 6.6852 67.4895 7.31589C66.8623 8.57728 65.6077 8.57743 66.8621 9.83882C68.1164 11.7309 67.4895 11.1001 70.6254 11.1001C72.5069 11.1001 71.8797 11.1002 70.6254 12.3616L69.998 12.9923C68.7436 14.8844 70.6253 14.8843 69.3709 14.8843C69.3709 14.8843 68.7435 15.5151 68.7435 16.1458C68.7435 16.1458 67.4893 17.4071 68.1165 19.2992C68.1165 19.2992 68.1165 19.2991 68.1165 19.9298C68.1165 20.5605 66.2349 25.606 66.8621 26.8674C64.9805 26.8674 62.4721 26.8674 61.2177 26.8674C61.2177 26.8674 58.0817 26.8675 58.7088 27.4982C58.7088 27.4982 74.3881 27.4982 75.0153 27.4982C75.6425 27.4982 76.2698 27.4982 77.5241 27.4982H76.8971L78.1512 26.8674L77.5241 27.4982C73.7611 30.6516 70.6251 34.4359 63.7262 31.9131C63.7262 31.9131 63.0992 31.9131 63.0992 31.2824C56.2002 28.7596 56.8274 23.0833 56.8274 18.6685V6.05462C56.2002 1.00908 57.4544 -0.882967 63.7262 0.37842ZM67.4895 26.8674C66.8623 25.606 67.4893 24.9754 68.1165 24.3447C68.1165 24.3447 68.7435 22.4525 68.7435 23.0832C68.7435 23.7139 69.371 26.2368 70.6254 25.6062C71.2525 25.6062 75.6427 24.9755 75.6427 25.6062C75.6427 26.2368 75.6427 25.606 75.6427 26.2367V26.8674C71.8796 26.2367 68.1166 26.2367 67.4895 26.8674ZM63.7262 108.227C65.6077 108.227 66.862 107.596 68.7435 106.966C72.5066 105.704 75.6427 104.443 78.7786 103.181C78.1514 103.181 77.5241 103.181 77.5241 103.181C74.3883 103.181 72.5068 103.181 69.3709 103.181C66.8622 103.181 63.7264 103.181 61.2177 103.181C59.3362 103.181 60.5905 103.181 58.0818 103.181C58.0818 103.181 58.0817 101.92 58.7088 101.92C60.5904 101.92 59.963 101.92 62.4718 101.92V101.289C63.0989 98.7666 63.7264 98.1358 64.3536 96.8744C64.9808 96.2437 63.7263 94.9824 63.0992 94.3517C63.0992 94.3517 62.4718 94.3517 62.4718 94.9824C61.2174 95.6131 61.8447 95.613 61.8447 95.613C61.2176 95.613 59.9631 94.9824 60.5903 93.721C61.2175 92.4596 61.8446 91.8289 62.4718 91.1982C63.0989 91.1982 63.7262 90.5675 63.7262 90.5675C63.7262 91.1982 63.7264 91.1982 64.3536 91.1982C64.9808 91.1982 65.6079 91.1983 66.235 91.829C66.235 91.1983 66.8621 91.1982 66.8621 90.5675C67.4893 89.9368 67.4893 89.3062 68.1165 88.6755C68.1165 88.6755 68.7437 88.0448 68.1165 88.0448C67.4893 87.4141 67.4893 87.414 68.1165 86.7833C68.7437 86.1526 69.998 86.1526 69.998 86.7833C70.6251 88.0447 69.3708 88.6755 69.998 88.0448L71.2524 86.7833V86.1526C71.2524 85.5219 71.2522 84.8913 71.8794 84.8913C71.2522 84.2606 69.998 84.2606 71.2524 85.522C70.6252 85.522 69.3707 84.2605 68.7435 83.6298C68.1163 82.3685 69.9982 82.9991 70.6254 82.9991C70.6254 82.3684 69.998 82.3686 69.998 82.3686C69.998 82.3686 69.998 81.1071 71.2524 81.7378C71.2524 81.7378 70.6253 79.8457 72.5068 81.1071C73.134 81.7378 75.0154 83.6299 74.3883 84.2606L73.1338 83.6298C72.5067 83.6298 73.7612 84.8913 73.7612 84.8913C74.3884 85.522 75.0154 85.5219 74.3883 86.1526C73.7611 86.7833 74.3882 86.7833 73.1338 86.1526L73.7612 86.7833H73.1338C73.1338 87.414 73.1338 87.4141 73.1338 88.6755C73.1338 89.3062 71.2524 90.5675 71.2524 91.1982C71.2524 91.8289 71.2524 92.4595 71.2524 93.0902C71.2524 94.3516 72.5069 93.721 73.7612 94.9824C75.0156 94.9824 76.897 95.6131 77.5241 98.1359C77.5241 98.7666 78.1514 99.3972 78.7786 100.028C78.1514 101.289 77.5243 100.659 76.8971 100.659C75.6428 100.028 76.2698 97.5051 74.3883 96.8744C75.0154 96.8744 74.3883 98.1357 74.3883 98.7664C74.3883 98.7664 75.0153 98.7665 75.0153 99.3972C75.0153 100.028 75.0155 100.659 75.6427 101.92C75.6427 101.92 76.2697 101.92 76.2697 103.181C76.2697 103.181 75.6425 103.181 75.0153 103.181C74.3881 103.181 74.3883 103.181 74.3883 102.551C73.7611 101.289 73.761 100.659 73.1338 100.659C73.1338 100.659 72.5066 101.92 71.8794 102.551C71.8794 102.551 71.8796 103.181 71.2524 103.181C71.2524 103.181 71.2524 103.181 71.2524 103.812C73.1339 103.812 76.8971 103.812 80.033 103.812H80.66C81.9144 103.181 83.1686 101.92 84.4229 101.289C89.4404 97.5052 88.8134 94.9824 85.0504 91.1982L76.2697 82.3686C72.5067 79.2151 69.3707 75.4309 62.4718 77.9536C62.4718 77.9536 61.8447 77.9537 61.8447 78.5844C54.9458 81.1071 55.573 86.7834 55.573 91.1982V103.812C56.2001 107.596 57.4544 109.488 63.7262 108.227ZM64.3536 102.551C64.3536 101.92 64.3536 101.92 64.3536 101.92L64.9806 100.028C65.6078 99.3972 66.235 98.7664 66.235 98.7664C66.235 98.7664 66.235 99.3972 66.235 100.028C66.235 100.659 66.8621 101.289 66.8621 101.92C66.8621 102.551 67.4893 102.551 68.1165 102.551C68.1165 101.92 68.1166 101.289 67.4895 101.289L66.8621 100.659C66.8621 100.028 67.4893 99.3972 68.1165 99.3972C69.3708 99.3972 69.371 99.3972 70.6254 99.3972C71.2525 99.3972 71.2524 99.3972 71.2524 100.028C71.8796 100.659 71.8794 100.659 71.8794 100.659C71.8794 101.289 70.6254 101.92 70.6254 102.551C70.6254 102.551 70.6251 103.181 69.998 103.181C68.7436 102.551 66.2351 102.551 64.3536 102.551ZM0.381489 44.527C0.381489 42.6349 1.00874 41.3734 1.63592 39.4813C2.89027 35.0664 4.77173 30.6516 6.65326 26.8674C7.28043 25.606 8.53456 24.3446 9.16173 23.0832C12.9248 18.0377 15.4337 18.6685 19.1968 22.4527L27.977 31.2824C31.1129 35.0665 34.8761 38.2199 32.3673 45.1575C32.3673 45.1575 32.3675 45.7882 31.7403 45.7882C29.2316 52.7259 23.587 52.0952 19.1968 52.0952H6.65326C1.00867 52.0952 -0.872865 50.8339 0.381489 44.527ZM11.0436 21.822C11.0436 22.4527 11.6706 22.4525 11.6706 23.0832C11.6706 23.0832 11.0436 24.3447 11.0436 24.9754C11.0436 25.6061 11.0434 26.2367 11.6706 26.8674H12.2976C12.2976 26.8674 12.2976 26.8674 12.2976 26.2367C12.2976 26.2367 12.2976 26.2368 12.2976 25.6062C12.2976 24.3448 13.552 24.9753 13.552 23.714C14.1792 23.0833 14.8065 23.714 14.8065 23.714C15.4337 23.714 15.4335 24.9753 15.4335 26.2367C14.8063 27.4981 14.8065 28.1289 14.8065 28.7596C14.1793 28.7596 12.9248 28.1289 12.2976 28.1289C11.6704 28.1289 11.6706 28.7596 11.6706 28.7596C11.6706 28.7596 11.6704 29.3902 12.2976 29.3902C12.9248 29.3902 14.1791 29.3902 15.4335 29.3902C15.4335 30.0209 15.4335 31.9131 15.4335 34.4358C11.6704 36.9586 8.53456 39.4814 9.16173 40.7428C9.78891 42.0041 10.4161 40.112 12.2976 39.4813C12.2976 39.4813 14.1794 38.8507 16.0609 37.5893C16.0609 38.8507 16.0609 39.4813 16.0609 40.112C15.4337 40.112 14.1792 40.112 13.552 40.112C13.552 40.112 13.552 40.7428 13.552 41.3735C13.552 43.8963 12.9248 47.0497 12.2976 49.5724V50.2032L16.0609 50.8339C16.6881 50.8339 17.9422 50.8339 18.5694 50.8339H22.3327C22.3327 50.8339 22.3327 50.2031 22.3327 49.5724C21.7055 47.6803 21.0784 43.8961 20.4512 42.004C20.4512 40.7426 20.4512 40.112 20.4512 40.112H19.8238C19.1966 40.112 18.5695 40.112 17.9424 40.112C17.9424 39.4813 17.9424 38.2199 17.9424 36.9586C21.7054 35.0665 25.4686 32.5436 25.4686 32.5436C24.8414 30.6515 21.0782 31.913 17.9424 33.8051C17.9424 32.5437 17.9424 31.2824 17.9424 31.2824C17.9424 30.6517 18.5694 30.0209 18.5694 30.0209V28.7596C19.8237 28.7596 21.0781 28.7596 21.7053 28.7596C22.3324 28.7596 22.3327 28.1289 22.3327 27.4982C22.3327 26.8675 22.3324 26.8674 21.7053 26.8674C20.4509 26.8674 19.1966 27.4982 18.5694 27.4982C18.5694 26.2368 19.1966 24.3446 18.5694 23.0832C17.9422 21.8218 16.061 20.5606 14.1795 22.4527C12.2979 22.4527 11.6707 21.822 11.0436 21.822ZM15.4335 35.6971V35.0666C17.9422 33.8052 19.824 32.5437 20.4512 33.1744C20.4512 33.1744 17.9422 34.4357 15.4335 35.6971ZM14.1795 35.6971V36.3278C13.5523 36.9585 12.925 36.9586 12.925 36.9586C11.6707 37.5893 9.16196 39.4813 9.78914 38.8506C9.78914 38.8506 12.2979 36.9585 14.1795 35.6971ZM14.8065 42.6348C16.688 42.6348 17.3153 43.8961 17.3153 45.1575C17.3153 46.4189 16.0607 47.0497 15.4335 47.0497C14.1791 47.0497 13.5522 46.4189 12.925 45.1575C12.2978 44.5268 12.9249 42.6348 14.8065 42.6348ZM12.2976 23.714C12.2976 24.3447 12.2976 24.3447 12.2976 23.714C11.6704 23.714 11.6704 23.714 12.2976 23.714ZM11.6706 23.714H12.2976C12.2976 23.714 12.2978 24.3447 11.6706 24.3447H11.0436C11.6707 23.714 11.6706 23.714 11.6706 23.714ZM16.6879 40.7428C16.0608 40.7428 14.8066 40.7428 12.925 40.7428C12.2978 40.7428 12.2976 40.7428 12.2976 41.3735C12.2976 42.6349 11.6706 45.7883 11.6706 47.6804C11.6706 48.3111 11.0434 48.9417 11.6706 48.9417C13.5521 48.9417 17.9424 48.9417 17.9424 48.9417V48.311C17.9424 47.0496 17.3151 44.5269 16.6879 43.2655C17.3151 42.0041 17.3151 41.3735 16.6879 40.7428ZM107.629 44.527C107.629 42.6349 107.001 41.3734 106.374 39.4813C105.12 35.0664 103.238 30.6516 101.357 26.8674C100.73 25.606 99.4755 24.3446 98.8483 23.0832C96.9668 20.5605 95.7121 19.2992 93.8306 19.2992C93.8306 21.822 93.8306 24.9755 93.8306 25.6062C93.8306 26.2368 93.8306 27.4982 93.8306 28.1289C94.4578 28.1289 95.0853 28.1289 95.7124 28.1289C97.594 28.1289 97.5939 28.1289 97.5939 28.7596C97.5939 29.3903 96.9666 30.0209 96.3395 30.0209C95.0851 30.0209 93.2036 30.0209 91.3221 29.3902C91.3221 30.6516 91.3219 33.1744 93.8306 33.1744C93.8306 33.1744 94.458 33.1743 94.458 32.5436C95.0852 31.9129 96.3395 31.2823 96.3395 33.1744L95.085 33.8051C94.4578 38.22 97.594 43.2655 98.8483 46.419C98.8483 47.6804 92.5765 49.5724 88.1862 48.311C85.0503 47.6803 81.2872 47.6804 83.7959 43.8962C84.4231 42.6348 85.6774 36.3279 85.6774 33.8051C85.0502 33.8051 84.4229 33.1744 84.4229 33.1744C84.4229 32.5437 85.0502 32.5436 85.6774 32.5436C86.3046 32.5436 86.3048 32.5437 86.3048 33.1744C88.1863 33.1744 88.8133 33.1744 88.8133 30.0209C87.5589 30.0209 85.6773 30.6516 84.4229 30.6516C83.7958 30.6516 83.1689 30.0209 83.1689 29.3902C83.1689 29.3902 83.1688 29.3903 85.0504 28.7596C85.0504 28.7596 85.6776 28.7596 86.3048 28.7596V27.4982C86.3048 26.2368 86.3048 26.2367 86.3048 26.2367V24.9754L80.033 31.2824C76.8971 35.0665 73.134 38.2199 75.6427 45.1575C75.6427 45.1575 75.6425 45.7882 76.2697 45.7882C78.7784 52.7259 84.423 52.0952 88.8133 52.0952H101.357C107.001 52.0952 108.883 50.8339 107.629 44.527ZM93.2036 19.2992C91.9492 19.2992 90.6948 20.5606 88.8133 22.4527L87.5588 23.714C87.5588 24.9753 87.5588 26.2367 87.5588 26.8674C87.5588 27.4981 87.5588 27.4982 87.5588 28.1289C88.8132 28.1289 89.4404 28.1289 90.6947 28.1289C91.9491 28.1289 92.5764 28.1289 93.2036 28.1289C93.2036 27.4982 93.2036 26.8674 93.2036 26.2367C93.2036 24.9753 93.2036 21.1913 93.2036 19.2992ZM86.3048 39.4813C86.3048 41.3734 89.4405 41.3735 90.0677 40.7428C90.0677 40.1121 90.0678 39.4813 89.4407 39.4813C89.4407 39.4813 88.1861 39.4813 88.8133 40.112C89.4404 40.112 89.4407 40.7428 89.4407 40.7428C89.4407 41.3735 88.1862 41.3734 88.1862 40.112C88.1862 38.8506 89.4405 38.2199 90.0677 38.8506C90.0677 37.5892 90.6949 37.5893 91.3221 37.5893C91.9493 37.5893 91.9494 37.5893 92.5765 38.22C93.2037 38.8507 92.5763 39.4813 91.9491 39.4813C91.322 39.4813 91.3221 38.8506 91.3221 38.8506H90.6947C90.6947 39.4813 91.3221 40.112 91.3221 40.112C91.3221 40.112 91.9494 39.4813 92.5765 39.4813C93.8309 39.4813 93.8307 41.3735 93.2036 41.3735C92.5764 41.3735 91.9494 40.7428 92.5765 40.7428C92.5765 40.1121 91.9491 40.7428 91.9491 40.7428C91.322 41.3735 91.9491 41.3733 91.9491 42.004C91.9491 42.6347 93.2034 42.6347 93.8306 42.004C94.4578 41.3733 94.458 40.112 94.458 39.4813C94.458 39.4813 93.8306 38.8506 93.8306 39.4813C93.8306 40.112 93.2036 40.112 93.2036 39.4813C93.2036 38.8506 93.8307 38.2199 95.085 38.8506C95.7122 39.4813 95.7124 39.4813 95.7124 39.4813C95.7124 34.4357 85.6776 33.1744 86.3048 39.4813ZM84.4229 64.0783C88.8132 63.4476 90.0677 67.2318 90.0677 70.3852C90.0677 73.5387 87.5591 75.4309 85.0504 75.4309C82.5416 75.4309 80.0328 73.5387 79.4056 71.016C79.4056 68.4932 80.6599 64.709 84.4229 64.0783ZM107.629 64.0783C107.629 65.9704 107.001 67.2319 106.374 69.124C105.12 73.5388 103.238 77.9537 101.357 81.7378C100.73 82.9992 99.4755 84.2606 98.8483 85.522C95.0853 90.5676 92.5763 89.9367 88.8133 86.1526L80.033 77.3229C76.8971 73.5387 73.134 70.3854 75.6427 63.4478C75.6427 63.4478 75.6425 62.817 76.2697 62.817C78.7784 55.8794 84.423 56.5101 88.8133 56.5101H94.458C92.5765 58.4022 91.9491 68.4932 91.9491 71.016C91.9491 87.414 98.221 84.8913 96.3395 82.3686V81.7378C96.3395 81.1071 96.3393 81.1071 96.9665 80.4764C97.5937 79.8457 98.2211 79.215 98.8483 77.9536C98.8483 77.9536 99.4753 77.9536 99.4753 77.3229C100.73 76.0615 100.73 74.8002 101.357 72.9082C101.357 72.2775 101.357 71.6467 101.357 71.016C102.611 71.016 103.865 71.6467 104.493 71.016C105.12 71.016 106.374 69.124 105.747 69.124C105.747 68.4933 104.493 69.124 100.73 69.124C100.73 68.4933 101.357 67.2319 100.73 66.6012C100.73 65.3398 100.103 63.4477 98.8483 62.1863L98.2209 61.5556C96.9666 60.9249 96.3395 59.6635 96.3395 59.0328C96.3395 58.4021 95.7124 58.4021 95.7124 57.7714V57.1408C96.3396 56.5101 96.3396 55.8793 95.7124 55.2486H101.357C107.001 56.51 108.883 57.7714 107.629 64.0783ZM97.5939 71.6467C96.3395 71.6467 95.0852 71.6467 94.458 71.6467C93.8308 71.6467 93.2036 71.6468 93.2036 72.9082C93.2036 74.8002 93.8306 76.6922 93.8306 77.9536C94.4578 77.3229 95.0853 76.6923 95.7124 76.0616C96.3396 75.4309 96.9665 74.1694 96.9665 73.5387C98.2208 72.908 98.2211 72.2774 97.5939 71.6467ZM97.5939 69.7547C98.2211 69.124 98.2209 68.4932 98.2209 67.2318C98.2209 65.9704 97.5937 65.3397 96.9665 64.709C96.3393 64.0783 95.7122 63.4477 95.085 62.817C94.4578 64.7091 94.458 66.6012 94.458 69.124C93.8308 70.3854 95.7124 69.7547 97.5939 69.7547ZM85.0504 67.2318C86.9319 67.2318 88.1862 68.4933 88.1862 69.7547C88.1862 71.6468 86.3047 72.9082 85.0504 72.9082C83.1688 72.9082 81.9145 71.6468 81.9145 69.7547C82.5416 68.4933 83.796 67.2318 85.0504 67.2318ZM24.8412 60.9248C27.3499 60.2941 27.977 62.8169 27.977 64.0783C27.977 65.3397 26.7229 66.6012 25.4686 66.6012C24.2142 66.6012 22.9599 65.3397 22.3327 64.0783C22.3327 63.4476 22.9596 61.5555 24.8412 60.9248ZM0.381489 64.0783C0.381489 65.9704 1.00874 67.2319 1.63592 69.124C2.2631 71.016 2.8902 72.9081 3.51737 74.8002H4.1444C4.1444 74.1695 4.1444 74.1694 4.1444 73.5387C6.6531 74.1694 9.78891 73.5387 12.2976 73.5387V74.8002C13.552 74.8002 14.8066 74.8002 16.0609 74.8002V73.5387C18.5696 73.5387 21.0784 73.5387 23.5871 73.5387C23.5871 74.1694 23.5871 74.1695 23.5871 74.8002C23.5871 75.4309 24.2141 75.4309 24.2141 75.4309C24.8413 75.4309 26.7228 75.4309 27.35 75.4309V76.6922C26.0957 76.6922 21.0783 76.6922 19.1968 76.6922C19.1968 76.6922 9.78891 76.6922 9.16173 76.6922C8.53456 76.6922 6.02585 76.6922 2.88997 76.6922C3.51714 78.5843 4.77165 79.8458 5.39883 81.7378C6.026 82.9992 7.28051 84.2606 7.90769 85.522C11.6707 90.5676 14.1793 89.9367 17.9424 86.1526L26.723 77.3229C29.8589 73.5387 33.6216 70.3854 31.1129 63.4478C31.1129 63.4478 31.1131 62.817 30.4859 62.817C27.9772 55.8794 22.3326 56.5101 17.9424 56.5101H5.39883C1.00859 56.5101 -0.872865 57.7714 0.381489 64.0783ZM25.4686 62.817C26.0957 62.817 27.35 63.4476 27.35 64.0783C27.35 64.709 26.7229 65.9705 25.4686 65.9705C24.8414 65.9705 23.5871 65.3397 23.5871 64.0783C23.5871 62.8169 24.2142 62.817 25.4686 62.817ZM11.6706 64.709C9.78906 65.3397 12.9251 65.3398 14.1795 65.3398C17.3153 65.3398 16.6879 65.3397 15.4335 64.0783C14.1791 64.0783 12.9249 63.4476 11.6706 64.709ZM16.0609 72.2774V73.5387C18.5696 73.5387 21.7056 73.5389 23.5871 72.9082C23.5871 72.2775 23.5869 71.6467 22.9597 71.016C21.0782 71.6467 18.5696 71.6467 16.0609 72.2774ZM4.1444 71.6467C4.1444 72.2774 4.1444 72.908 4.1444 73.5387C7.28028 73.5387 9.78891 73.5387 12.2976 73.5387V71.6467C9.78891 71.6467 6.6531 71.6467 4.1444 71.6467ZM10.4162 64.709C9.78899 65.3397 5.39898 67.8625 4.7718 68.4932C4.7718 68.4932 4.1444 69.7546 4.1444 71.016C6.6531 71.016 9.16189 71.016 11.6706 71.016V69.7547H12.925H15.4335V71.016C17.9422 70.3853 20.451 71.0159 22.9597 70.3852C22.9597 69.7545 22.9599 69.7547 22.3327 69.124C21.7055 67.2319 21.7053 67.8626 19.8238 66.6012C18.5695 65.9705 16.688 64.7092 14.8065 63.4478C14.1793 62.8171 12.9249 62.8171 11.6706 63.4478V62.1863V64.0783C11.0434 64.0783 11.0433 64.709 10.4162 64.709Z" fill="#95A1BB"/>
<path d="M36.758 44.5271C38.6396 41.3736 41.1484 38.8507 44.2842 36.9587C48.0473 35.0666 51.8104 34.4359 51.8104 40.1121V42.0041V47.6805C51.8104 50.834 50.556 52.0953 47.4201 52.0953H41.7754H39.8939C34.2493 52.0953 34.8765 47.6805 36.758 44.5271Z" fill="#95A1BB"/>
<path d="M71.2526 44.5271C69.3711 41.3736 66.8623 38.8507 63.7264 36.9587C60.5905 35.0666 56.2002 34.4359 56.2002 40.1121V42.0041V47.6805C56.2002 50.834 57.4546 52.0953 60.5905 52.0953H66.2353H68.1167C73.7613 52.0953 73.1341 47.6805 71.2526 44.5271Z" fill="#95A1BB"/>
<path d="M71.2526 64.0785C69.3711 67.2319 66.8623 69.7548 63.7264 71.6469C60.5905 73.5389 56.2002 74.1696 56.2002 68.4934V66.6014V60.925C56.2002 57.7715 57.4546 56.5103 60.5905 56.5103H66.2353H68.1167C73.7613 56.5103 73.1341 60.925 71.2526 64.0785Z" fill="#95A1BB"/>
<path d="M36.758 64.0785C38.6396 67.2319 41.1484 69.7548 44.2842 71.6469C48.0473 73.5389 51.8104 74.1696 51.8104 68.4934V66.6014V60.925C51.8104 57.7715 50.556 56.5103 47.4201 56.5103H41.7754H39.8939C34.2493 56.5103 34.8765 60.925 36.758 64.0785Z" fill="#95A1BB"/>
</g>
</svg>
