<svg width="25" height="24" viewBox="0 0 25 24" fill="none" xmlns="http://www.w3.org/2000/svg">
<path d="M0.862746 5.72264C2.07785 3.69767 3.69803 2.07765 5.72319 0.862664C8.15339 -0.352319 10.5836 -0.757313 10.5836 2.88763V4.10257V7.74761C10.5836 9.77258 9.77353 10.5825 7.74836 10.5825H4.10296H2.88791C-0.757385 10.5825 -0.352353 7.74761 0.862746 5.72264Z" fill="#DF6837"/>
<path d="M23.1398 5.72264C21.9247 3.69767 20.3046 2.07765 18.2794 0.862664C16.2542 -0.352319 13.4189 -0.757313 13.4189 2.88763V4.10257V7.74761C13.4189 9.77258 14.2291 10.5825 16.2542 10.5825H19.8996H21.1147C24.76 10.5825 24.3549 7.74761 23.1398 5.72264Z" fill="#B5C450"/>
<path d="M23.1398 18.2773C21.9247 20.3023 20.3046 21.9223 18.2794 23.1373C16.2542 24.3523 13.4189 24.7573 13.4189 21.1123V19.8974V16.2524C13.4189 14.2274 14.2291 13.4175 16.2542 13.4175H19.8996H21.1147C24.76 13.4175 24.3549 16.2524 23.1398 18.2773Z" fill="#FAD547"/>
<path d="M0.862746 18.2773C2.07785 20.3023 3.69803 21.9223 5.72319 23.1373C8.15339 24.3523 10.5836 24.7573 10.5836 21.1123V19.8974V16.2524C10.5836 14.2274 9.77353 13.4175 7.74836 13.4175H4.10296H2.88791C-0.757385 13.4175 -0.352353 16.2524 0.862746 18.2773Z" fill="#C14B93"/>
</svg>
